<?xml version="1.0" standalone="no"?>
<!DOCTYPE svg PUBLIC "-//W3C//DTD SVG 1.1//EN" "http://www.w3.org/Graphics/SVG/1.1/DTD/svg11.dtd">
<svg xmlns="http://www.w3.org/2000/svg">
<metadata>Generated by Fontastic.me</metadata>
<defs>
<font id="atticagroup-font" horiz-adv-x="512">
<font-face font-family="atticagroup-font" units-per-em="512" ascent="480" descent="-32"/>
<missing-glyph horiz-adv-x="512" />

<glyph glyph-name="dummy" unicode="&#97;" d="M443 75c-50 78-119 148-123 245l-43 0c4-111 75-182 127-264 3-6-1-13-8-13l-27 0-101 149-75 0c19 36 40 73 42 128l-43 0c-4-97-73-168-123-245-3-8-5-15-5-23 0-27 22-52 52-52l280 0c30 0 52 25 52 52 0 8-2 15-5 23z m-102 330c0-23-19-42-42-42-24 0-43 19-43 42 0 24 19 43 43 43 23 0 42-19 42-43z m-106 32c0-17-15-32-32-32-18 0-32 15-32 32 0 18 14 32 32 32 17 0 32-14 32-32z m0-74c0-12-10-22-22-22-11 0-21 10-21 22 0 11 10 21 21 21 12 0 22-10 22-21z m64 128c0-12-10-22-22-22-11 0-21 10-21 22 0 11 10 21 21 21 12 0 22-10 22-21z"/>
<glyph glyph-name="btn-arrow" unicode="&#98;" d="M307 43c-8 0-21 4-30 12-17 18-17 43 0 60l94 98-328 0c-26 0-43 17-43 43 0 26 17 43 43 43l328 0-94 98c-17 17-17 42 0 60 17 17 43 17 60 0l162-171c4-4 4-9 9-13 0 0 0 0 0-4 4 0 4-4 4-13 0-4 0-9-4-13 0 0 0 0 0-4 0-4-5-9-9-13l-158-171c-8-8-21-12-34-12z"/>
<glyph glyph-name="calendar" unicode="&#99;" d="M365 496c8 0 16-8 16-16l0-80c0-8-8-16-16-16-8 0-16 8-16 16l0 80c0 11 6 19 16 16 0 3 0 3 0 0z m-152-69c0 8 8 16 16 16l54 0c8 0 16-8 16-16 0-8-8-16-16-16l-54 0c-8 0-16 8-16 16z m-213-54c0 38 32 70 69 70l19 0c11 0 16-6 16-16 0-11-5-16-16-16l-19 0c-18 0-37-16-37-38l0-48 448 0 0 48c0 22-16 38-37 38l-19 0c-8 0-16 8-16 16 0 8 8 16 16 16l19 0c37 0 69-32 69-70l0-293c0-37-32-69-69-69l-374 0c-37 0-69 32-69 69z m480-80l-445 0 0-213c0-21 16-37 37-37l373 0c22 0 38 16 38 37l0 213z m-315 107c0-8-8-16-16-16-8 0-16 8-16 16l0 80c0 8 8 16 16 16 8 0 16-8 16-16z"/>
<glyph glyph-name="clear" unicode="&#100;" d="M489 401c29 28 29 66 0 94-28 28-65 28-94 0l-141-141-141 141c-28 28-66 28-94 0-28-28-28-66 0-94l141-141-141-141c-28-28-28-66 0-94 28-28 66-28 94 0l141 141 141-141c29-28 66-28 94 0 29 28 29 66 0 94l-141 141z"/>
<glyph glyph-name="minus" unicode="&#101;" d="M0 256c0 28 23 51 51 51l410 0c28 0 51-23 51-51 0-28-23-51-51-51l-410 0c-28 0-51 23-51 51z"/>
<glyph glyph-name="passenger" unicode="&#102;" d="M256 259c59 0 107 48 107 108 0 59-48 107-107 107-59 0-107-48-107-107 0-60 48-108 107-108z m145 108c0-49-24-95-65-122 34-12 64-31 90-56 45-45 70-106 70-170 0-5-2-10-6-13-3-4-8-6-13-6l-442 0c-5 0-10 2-13 6-4 3-6 8-6 13 0 102 64 192 160 226-41 27-65 73-65 122 0 80 65 145 145 145 80 0 145-65 145-145z m-288-205c-33-33-54-77-58-124l402 0c-7 74-54 139-124 168-75 31-162 14-220-44z"/>
<glyph glyph-name="pet" unicode="&#103;" d="M256 327c-8-29-37-50-70-50-24 0-46 12-59 29l11-32c6-18 5-35-2-52l0 0c-8-16-21-29-38-34l0 0c-7-3-14-4-22-4-9 0-19 1-29 6-16 8-28 21-34 38l-11 33c-13 35 4 74 40 86 27 10 57 1 75-22-2 6-3 12-3 18l0 35c0 37 33 67 72 67 33 0 62-22 70-50 8 28 37 50 70 50 39 0 72-30 72-67l0-35c0-6-1-12-3-18 17 23 48 32 75 23 17-6 31-19 38-35 8-16 8-35 2-52l-12-33c-5-17-18-30-33-38l-1 0c-9-4-19-6-28-6-8 0-15 1-22 4l0 0c-17 6-30 18-38 34-7 16-8 35-2 52l11 32c-13-18-35-29-59-29-33 0-62 21-70 50z m-112 16c0-20 19-38 42-38 23 0 42 18 42 38l0 35c0 21-19 39-42 39-23 0-42-18-42-39z m-105-105c3-10 11-18 20-22 9-5 19-5 29-1 10 3 18 11 22 20 5 9 5 20 2 30l-12 33c-6 16-20 26-37 26-4 0-9-1-13-2-20-8-30-31-23-51z m245 105c0-20 19-38 42-38 23 0 42 18 42 38l0 35c0 21-19 39-42 39-23 0-42-18-42-39z m128-46l-12-33c-4-10-3-21 2-30 4-10 12-17 21-21l1 0c9-4 20-3 29 1 9 5 17 13 20 23l0 0 12 33c6 20-4 43-23 51-5 1-9 2-14 2-15 0-30-10-36-26z m-129-223c-10 2-19 3-27 3-8 0-17-1-28-3l-3-1 0 0-7-1c-11-2-24-5-35-5-12 0-24 2-35 9-11 6-21 16-28 32-13 33-5 80 19 115 27 38 69 59 118 59 49 0 92-21 115-59 25-35 33-82 19-115-11-26-29-36-48-39-19-3-40 1-56 4z m84 44c9 21 7 59-16 90l0 0c-15 22-43 47-94 47-51 0-80-26-94-47-23-31-25-69-16-90 3-7 7-12 11-16 5-3 10-5 16-6 12-2 27 0 47 4l0 0 3 0c11 2 22 4 33 4 11 0 22-2 33-4l3 0 0 0c20-4 35-6 48-4 6 1 11 3 15 6 4 4 8 9 11 16z"/>
<glyph glyph-name="plus" unicode="&#104;" d="M307 461c0 28-23 51-51 51-28 0-51-23-51-51l0-154-154 0c-28 0-51-23-51-51 0-28 23-51 51-51l154 0 0-154c0-28 23-51 51-51 28 0 51 23 51 51l0 154 154 0c28 0 51 23 51 51 0 28-23 51-51 51l-154 0z"/>
<glyph glyph-name="vehicle" unicode="&#105;" d="M319 303l-163 0-30 27-14-13 32-31c3-2 5-2 7-2l170 0c0 0 2 0 5 0l21 9-7 19z m193-52l0-72c0-7-5-9-12-9l-53 0c-7-26-30-42-56-42-26 0-49 16-56 42l-165 0c-7-26-30-42-56-42-26 0-49 16-56 42l-4 0c-26 0-45 14-52 39-4 21-2 80 10 108 0 2 4 6 9 6l30 0c10 7 19 14 28 21 28 21 54 42 91 42l86 0c47 0 88-30 123-60 98-7 133-44 133-75z m-361-67c0 18-16 35-37 35-21 2-37-14-37-35 0-19 16-35 37-35 19 0 37 16 37 35z m277 0c0 18-16 35-37 35-21 0-37-17-37-35 0-19 16-35 37-35 19 0 37 16 37 35z m63 67c0 17-26 49-116 52-3 0-5 2-7 2-45 42-77 58-112 58l-84 0c-30 0-51-14-77-37-11-7-21-14-32-23-2 0-5 0-7 0l-26 0c-9-28-11-73-7-89 5-16 14-23 31-23 2 28 27 51 58 51 30 0 56-23 58-51l160 0c3 28 28 51 59 51 30 0 56-23 58-51l42 0 0 60z"/>
<glyph glyph-name="edit" unicode="&#106;" d="M436 512c-20 0-39-8-54-23l-30-30 107-107 31 29c14 15 22 34 22 54 0 21-8 40-22 54-15 15-34 23-54 23z m-103-72l-297-296-36-144 144 36 297 297z"/>
<glyph glyph-name="itineraries" unicode="&#107;" d="M129 87c-30 40-129 175-129 241 0 78 64 141 142 141 79 0 143-63 143-141 0-5-1-11-2-17 0-2-2-5-4-6-3-2-6-2-8-1-5 1-9 6-8 11 1 5 2 9 2 13 0 67-55 121-123 121-67 0-122-54-122-121 0-47 63-147 122-225 16 20 55 74 85 126 3 5 9 7 14 4 4-2 6-9 3-13-31-56-72-111-88-133-4-4-8-6-14-6-5 0-10 2-13 6z m83 239c0-39-31-70-70-70-39 0-71 33-70 73 2 36 31 65 68 67 39 1 72-31 72-70z m-70 50c-13 0-26-6-36-16-9-10-14-23-14-36 2-26 22-47 48-48 14 0 27 4 37 14 10 9 15 22 15 36 0 27-22 50-50 50z m152 47c-4-3-10-3-14 1-2 2-3 5-2 8 0 3 1 5 3 7 25 20 57 30 89 30 78 0 142-63 142-141 0-66-99-201-129-241-3-4-8-6-13-6-5 0-10 2-14 6-30 40-129 175-129 241 0 10 1 20 4 30 0 3 2 5 4 7 3 1 6 2 8 1 5-2 8-7 7-12-2-9-3-17-3-26 0-47 63-146 123-225 59 79 122 178 122 225 0 67-55 121-122 121-28 0-55-9-76-26z m76-167c-40 0-72 33-70 73 1 36 31 65 67 67 40 1 73-31 73-70 0-39-32-70-70-70z m-3 20c14 0 27 4 37 14 10 9 16 22 16 36 0 27-23 50-50 50-14 0-27-6-36-16-10-10-15-23-14-36 1-26 22-47 47-48z m-311-233c-5 0-10 4-10 10 0 6 5 10 10 10l406 0c6 0 11-4 11-10 0-6-5-10-11-10z"/>
<glyph glyph-name="arrow-itinerary" unicode="&#108;" d="M284 396c7 6 17 5 23-1l121-128c5-6 5-16 0-22l-121-128c-6-6-16-7-23-1-6 6-7 17-1 23l96 101-283 0c-9 0-16 7-16 16 0 9 7 16 16 16l283 0-96 101c-6 6-5 17 1 23z"/>
<glyph glyph-name="arrow-previous" unicode="&#109;" d="M378 28c-9-9-22-9-30 0l-214 213c-8 8-8 22 0 30l214 213c8 9 21 9 30 0 8-8 8-21 0-30l-198-198 198-198c8-9 8-22 0-30z"/>
<glyph glyph-name="arrow-next" unicode="&#110;" d="M134 484c9 9 22 9 30 0l214-213c8-8 8-22 0-30l-214-213c-8-9-21-9-30 0-8 8-8 21 0 30l198 198-198 198c-8 9-8 22 0 30z"/>
<glyph glyph-name="overnight" unicode="&#111;" d="M414 105c27 27 47 62 57 100-76-57-182-50-248 17-67 68-74 174-17 249-76-19-136-78-157-154-21-75 0-157 56-212 85-86 224-86 309 0z"/>
<glyph glyph-name="cabin" unicode="&#112;" d="M85 396l0-78c9 4 18 7 27 7l13 0c18 0 34-8 44-21 2 2 4 4 6 6 9 11 20 17 34 21 14 3 32 4 57 4 26 0 75-5 117-11 24-2 49-6 73-9l4 0 1-1c24 0 42-19 42-43l0-154-52 0-3 8-17 42-153 0-25-18-3-2-30 0-4 4-16 16-119 0-17-42-3-8-52 0 0 279z m-25-26l-26 0 0-228 9 0 17 43 4 8 110 0-36 35-78 0 0 49z m76-116l1 0c5 9 10 17 15 25-1 11-12 20-27 20l-13 0c-17 0-27-10-27-22l0-23z m312-61l4-8 17-43 9 0 0 86-116 0-49-35z m-271 78c-2-4-5-9-8-13-4-6-7-11-9-15l71-70 11 0 109 78 3 3 124 0 0 17c0 10-8 18-18 18l-1 0-1 0 2 13-2-13 0 0 0 0-1 0-5 1c-24 3-48 6-72 9-42 5-90 10-114 10-25 0-40-1-51-3-9-3-15-6-21-13l0 0 0 0c-5-5-10-13-16-21l0-1z"/>
<glyph glyph-name="seat" unicode="&#113;" d="M174 485c-19 0-34-15-34-34 0-19 15-35 34-35 19 0 35 16 35 35 0 19-16 34-35 34z m-62-34c0 34 28 62 62 62 35 0 63-28 63-62 0-35-28-63-63-63-34 0-62 28-62 63z m-57-41c8 1 15-3 17-11l-13-3-14-3c-2 7 3 15 10 17z m17-11l0 0 0 0 0 0 1-2 1-6c8-32 16-64 23-96 14-54 28-112 33-130 5-17 13-30 23-39 10-8 25-14 46-14l79 0c7 0 14-7 14-14 0-8-7-14-14-14l-65 0 0-72c0-7-7-13-14-13-8 0-14 6-14 13l0 73c-20 2-37 9-50 20-16 14-25 32-31 52-6 19-21 78-34 132-8 32-15 63-23 95l-1 6-1 2 0 1 0 0 0 0 14 3z m265-198c2 8 9 13 17 11 16-3 29-13 36-28 0 0 1-1 1-1l64-165c3-8-1-16-8-19-7-2-15 1-18 8l-64 166c-3 6-9 10-17 12-7 2-12 9-11 16z m-163 178c16 0 29-5 40-16 10-9 18-23 26-40l0 0 0 0 2-3 4-6c3-5 6-12 10-18l10-17 2-3 68-19c3 0 5-2 6-3 4 0 4-9 4-9l0 0 0 0 1-1c0 0 0-1 0-1 0-8-2-16-5-23-3-8-9-14-16-19-8-5-18-8-30-8l-61 0c-4 0-7 2-10 4l-48 49c-4 4-5 9-4 14 1 4 5 8 10 10 5 1 10-1 13-4l45-45 55 0c8 0 12 2 15 4 3 1 5 4 6 6 0 1 0 2 0 2l-62 18c-4 1-7 3-9 7l12 6-12-6 0 0 0 0 0 0-1 2-3 5-10 17c-3 6-7 12-10 17-2 3-3 5-5 8-1 1-1 2-2 3-7 16-14 27-21 33-6 6-12 9-20 9l-10 0c-11-1-16-6-19-11-3-5-5-14-2-23 0 0 0-1 0-1l0-2c1-1 1-2 2-4 1-4 2-9 4-16 8-29 16-58 24-87l4-14 1-4 0-1 0 0c3-10 6-17 11-21 4-4 10-8 22-8l97 0c5 0 10-2 12-7l74-134c2-4 2-10-1-14-2-4-7-7-12-7-5 0-10 3-12 8l-69 126-89 0c-19 0-32 6-42 16-10 10-15 23-18 33l0 1 14 3-14-3 0 0 0 0 0 1-1 4-4 14-12 43c-6 22-12 45-18 67-4 15-3 31 5 44 8 14 22 23 41 24 1 0 1 0 1 0z m43-72c0 0 0 0 0 0"/>
<glyph glyph-name="profile" unicode="&#114;" d="M256 26c127 0 230 103 230 230 0 127-103 230-230 230-127 0-230-103-230-230 0-127 103-230 230-230z m252 230c0-139-113-252-252-252-139 0-252 113-252 252 0 139 113 252 252 252 139 0 252-113 252-252z m-329 99c0 45 34 76 77 76 43 0 77-31 77-76l0-33c0-46-34-77-77-77-43 0-77 31-77 77z m77 54c-31 0-55-21-55-54l0-33c0-33 24-55 55-55 31 0 55 22 55 55l0 33c0 33-24 54-55 54z m-87-196c29 14 63 21 87 21 24 0 58-7 87-21 14-7 28-15 38-26 10-11 17-25 17-40l0-55c0-6-5-11-11-11-6 0-11 5-11 11l0 55c0 8-3 17-11 25-8 8-19 15-32 21-26 13-57 19-77 19-20 0-51-6-77-19-13-6-24-13-32-21-8-8-12-17-12-25l0-55c0-6-4-11-10-11-7 0-11 5-11 11l0 55c0 15 7 29 17 40 10 11 24 19 38 26z"/>
<glyph glyph-name="trailer" unicode="&#115;" d="M305 391c23 0 71 0 97-55 4-8 8-15 11-22 2-4 4-8 6-11 13-25 18-36 26-59 4-13 3-34-7-51l75 0 0-18-90 0c-11-9-28-17-56-17l-112 0c-8-21-30-37-56-37-26 0-48 16-57 37l-85 0c-28 0-57 65-57 113 1 49 21 120 58 120z m-105-175c-23 0-42-17-42-39 0-21 19-39 42-39 23 0 41 18 41 39 0 22-18 39-41 39z m-60-39c0 31 26 56 60 56 33 0 60-25 60-56l0-1 108 0c23 0 40 6 51 19 11 14 13 32 9 44-6 20-11 30-21 49l-4 9c-5 9-10 20-17 33-20 40-52 43-81 43l-247 0c-18 1-39-53-39-102 0-48 29-95 39-95l82 0z m33 93l-93 0 0 78 93 0z m-19 60l-55 0 0-43 55 0z m187 13c1-2 16-32 19-38 5-12 2-20-1-24-5-7-14-11-27-11l-95 0 0 78 101 0z m-85-56l77 0c7 0 10 2 11 3 1 1 1 3-1 9-5 11-10 22-16 32l-71 0z"/>
<glyph glyph-name="pure-cabin" unicode="&#116;" d="M244 316c50-46 120-114 170-175 38-43 64-85 66-109l-47 0c0 13-20 42-52 79-9-7-18-12-28-16-11-5-21-8-32-11l-1-1-1 0c-5-1-11-3-16-3l-2 0c-6-1-12-1-18-1-96 0-165 41-202 146-33 91-49 255-49 255 0 0 61-31 172-32 123-2 251-68 251-193 0-6 0-14 1-21-1-3-1-5-1-6-1-3-1-5-2-7 0-3 0-5-1-8 0 0-1-1-1-2 0-1-1-2-1-2-1-3-1-6-2-8-1-3-2-6-2-8-2-2-2-4-2-4-3-6-6-13-9-19-41 48-98 104-168 170l-2 0c-3 2-7 3-11 3-9 0-15-6-15-16 0-4 1-8 5-11z"/>
<glyph glyph-name="cabin-window" unicode="&#117;" d="M32 256c0 123 101 224 224 224 124 0 224-101 224-224 0-123-100-224-224-224-123 0-224 101-224 224z m371 147c-2 3-5 4-8 4-3 0-6-1-8-4-3-2-4-5-4-8 0-3 1-6 4-8 2-3 5-4 8-4 3 0 6 1 8 4 3 2 4 5 4 8 0 3-1 6-4 8z m-135 49c0 7-5 12-12 12-7 0-12-5-12-11 0-7 5-12 12-12 7 0 12 4 12 11z m-143-49c-2 3-5 4-8 4-3 0-6-1-8-4-3-2-4-5-4-8 0-3 1-6 4-8 2-3 5-4 8-4 3 0 6 1 8 4 3 2 4 5 4 8 0 3-1 6-4 8z m-78-147c0-7 6-12 12-12 7 0 12 5 12 12 0 7-5 12-12 12-7 0-12-5-12-12z m62-147c2-3 5-4 8-4 3 0 6 1 8 4 3 2 4 5 4 8 0 3-1 6-4 8-2 3-5 4-8 4-3 0-6-1-8-4-3-2-4-5-4-8 0-3 1-6 4-8z m135-49c0-7 5-12 12-12 7 0 12 5 12 12 0 7-5 12-12 12-7 0-12-5-12-12z m143 49c2-3 5-4 8-4 3 0 6 1 8 4 3 2 4 5 4 8 0 3-1 6-4 8-2 3-5 4-8 4-3 0-6-1-8-4-3-2-4-5-4-8 0-3 1-6 4-8z m-297 124c11-83 82-145 166-145 88 0 160 67 167 154-4 3-8 6-13 8-13 8-31 15-50 15-10 0-19-3-29-8-10-5-19-11-30-18l-1-1c-22-13-46-29-74-29-23 0-40 8-55 15-4 2-8 4-11 5-10 4-19 7-31 8-11 1-23 0-39-4z m40 20c14-1 26-5 36-9 4-2 9-4 13-6 14-7 28-13 47-13 23 0 43 12 65 27l2 1c10 6 20 13 31 18 11 6 23 10 36 10 23 0 43-8 58-17 2-1 4-2 6-3-2 91-77 163-168 163-46 0-90-18-121-51-32-33-49-78-47-124 17 4 30 5 42 4z m311 3c0-7 5-12 12-12 6 0 11 5 11 12 0 7-5 12-11 12-7 0-12-5-12-12z"/>
<glyph glyph-name="whole-cabin" unicode="&#118;" d="M28 225l0-71 208 0 0-62c-1-7-7-12-14-12-7 0-13 5-13 12l0 27-181 0 0-27c-1-7-7-13-14-13-7 0-13 6-14 13l0 133c1 7 7 13 14 13 7 0 13-6 14-13z m55-19l132 0c12 0 21-12 21-25l0-19-153 0z m-55 211l0-71 208 0 0-62c-1-7-7-12-14-12-7 0-13 5-13 12l0 27-181 0 0-27c-1-7-7-13-14-13-7 0-13 6-14 13l0 133c1 7 7 13 14 13 7 0 13-6 14-13z m55-19l132 0c12 0 21-12 21-25l0-19-153 0z m217 19l0-71 208 0 0-62c-1-7-7-12-14-12-7 0-13 5-13 12l0 27-181 0 0-27c-1-7-7-13-14-13-7 0-13 6-14 13l0 133c1 7 7 13 14 13 7 0 13-6 14-13z m55-19l132 0c12 0 21-12 21-25l0-19-153 0z m-55-173l0-71 208 0 0-62c-1-7-7-12-14-12-7 0-13 5-13 12l0 27-181 0 0-27c-1-7-7-13-14-13-7 0-13 6-14 13l0 133c1 7 7 13 14 13 7 0 13-6 14-13z m55-19l132 0c12 0 21-12 21-25l0-19-153 0z"/>
<glyph glyph-name="cabin-filled" unicode="&#119;" d="M84 382l0-135 396 0 0-117c-1-14-12-24-26-24-13 0-25 10-26 24l0 51-344 0 0-51c-1-14-12-24-26-24-14 0-25 10-26 24l0 252c1 14 12 25 26 25 14 0 25-11 26-25z m53-40c10 0 21-5 28-12 8-8 12-18 12-29 0-21-18-39-40-39-22 0-40 18-40 39 0 23 18 41 40 41z m53 3l251 0c22 0 39-21 39-47l0-36-290 0z"/>
<glyph glyph-name="pet-filled" unicode="&#120;" d="M196 288c35 2 62 29 61 59l-2 31c-1 30-32 54-66 52-35-1-62-28-61-59l2-30c2-31 32-55 66-53z m-86 27c-14 32-50 44-78 29-30-15-40-54-25-85l14-31c7-15 20-26 34-31 9-4 18-4 26-3 6 1 13 3 19 6 14 7 24 20 28 36 5 17 4 33-3 48z m222-27c34-2 64 22 66 53l2 30c1 31-26 58-61 59-34 2-65-22-66-52l-2-31c-1-30 26-57 61-59z m148 56c-29 15-63 2-78-29l-14-30c-8-16-9-33-5-49 5-16 15-29 29-36 6-3 12-5 18-6 9-1 18 0 26 3 15 5 27 16 34 31l15 31c16 31 4 70-25 85z m-223-72c-44 0-81-18-105-52-22-32-29-74-17-103 11-28 33-35 55-35 10 0 21 2 31 3l6 2 4 0c9 2 17 4 25 4 7 0 16-2 25-4l3 0c31-6 74-15 93 30 12 29 5 71-17 103-21 34-59 52-103 52z"/>
<glyph glyph-name="view" unicode="&#121;" d="M495 256c0 0-70-154-239-154-167 0-238 154-238 154 0 0 98 154 238 154 142 0 239-154 239-154z m-141 0c1 26-10 51-28 70-19 18-44 28-70 28-26 0-51-10-70-28-18-19-28-44-28-70 0-26 10-51 29-70 18-18 43-28 69-28 26 0 51 10 70 28 18 19 29 44 28 70z m-56 0c0-23-19-42-42-42-23 0-42 19-42 42 0 23 19 42 42 42 23 0 42-19 42-42z"/>
<glyph glyph-name="cabin-no-window" unicode="&#122;" d="M22 68l409 409c12 12 31 12 44 0 12-13 12-32 0-44l-409-409c-12-12-32-12-44 0-12 12-12 32 0 44z m113-5c33-20 72-32 113-32 121 0 217 98 217 217 0 42-11 81-32 114l-39-40c10-21 16-44 17-69-2 1-4 2-6 3-14 8-34 16-56 16-2 0-4 0-5 0l-19-18c8 1 16 3 24 3 19 0 36-7 48-14 6-3 10-6 14-9-7-84-77-149-163-149-26 0-51 7-74 18z m25 169c-2 0-3 0-4 0-17 3-36 3-69-6 2-18 8-36 16-51l-40-40c-20 33-32 72-32 113 0 120 98 217 217 217 42 0 81-11 114-31l-40-40c-22 11-47 17-74 17-90 0-163-72-163-163 0-2 0-4 0-6 34 9 55 9 73 6 5-1 10-2 15-3z m88 218c7 0 12-5 12-12 0-6-5-11-12-11-6 0-12 6-12 12 0 7 6 11 12 11z m-143-59c5 5 12 5 17 0 4-4 4-12 0-16-5-5-12-5-17 0-4 4-4 12 0 16z m-48-155c-6 0-11 6-11 12 0 7 5 12 11 12 7 0 12-5 12-12 0-6-5-12-12-12z m191-190c-6 0-12 6-12 12 0 7 6 12 12 12 7 0 12-5 12-12 0-6-5-12-12-12z m143 59c-4-4-12-4-16 0-5 5-5 12 0 17 4 4 12 4 16 0 5-5 5-12 0-17z m48 131c-6 0-12 6-12 12 0 7 6 12 12 12 7 0 11-5 11-12 0-6-4-12-11-12z"/>
<glyph glyph-name="arrow-down" unicode="&#65;" d="M249 154c-9 0-17 3-23 10l-134 153c-9 10-8 26 2 35 10 9 26 8 35-2l118-133c0-1 1-2 2-2 1 0 2 1 3 2l117 133c6 7 15 10 24 8 9-1 16-8 19-16 3-9 1-19-5-25l-134-153c-6-7-15-10-24-10z"/>
<glyph glyph-name="arrow-up" unicode="&#66;" d="M256 355c9 0 17-4 23-11l129-146c6-7 8-16 5-24-3-9-10-15-19-16-8-2-17 1-23 8l-113 128c0 1-1 1-2 1-1 0-2 0-2-1l-113-128c-6-7-15-10-23-8-9 1-16 7-19 16-3 8-1 17 5 24l129 146c6 7 14 11 23 11z"/>
<glyph glyph-name="payment" unicode="&#68;" d="M24 239l0 104 370 0 0-31 23 0 0 140c0 18-14 33-33 33l-351 0c-18 0-33-15-33-33l0-211c0-19 15-33 33-33l53 0 0 23-53 0c-4-1-9 2-9 8z m0 129l0 40 370 0 0-40z m9 93l351 0c6 0 10-4 10-9l0-20-370 0 0 20c0 3 5 9 9 9z m448-157l-352 0c-18 0-32-14-32-33l0-211c0-18 14-33 32-33l352 0c18 0 33 15 33 33l0 211c0 19-15 33-33 33z m9-246c0-5-4-9-9-9l-352 0c-5 0-9 4-9 9l0 213c0 6 4 10 9 10l352 0c5 0 9-4 9-10z m-339 66l53 0 0-24-53 0z m84 0l53 0 0-24-53 0z m86 0l52 0 0-24-52 0z m85 0l53 0 0-24-53 0z m6 127l-11 0c-28 0-49-21-49-49 0-27 21-49 49-49l11 0c27 0 49 22 49 49 0 26-24 49-49 49z m0-74l-11 0c-15 0-26 11-26 25 0 15 11 26 26 26l11 0c14 0 25-11 25-26 0-14-13-25-25-25z"/>
<glyph glyph-name="tick" unicode="&#67;" d="M182 70c-14 0-24 4-33 14l-135 130c-19 19-19 47 0 65 19 19 47 19 65 0l103-97 251 246c18 19 46 19 65 0 19-18 19-46 0-65l-284-279c-9-10-23-14-32-14z"/>
<glyph glyph-name="arrow-itinerary-sml" unicode="&#69;" d="M313 28c-6 0-14 3-20 6-11 12-14 29-3 40l131 154-393 0c-17 0-28 11-28 28 0 17 11 28 28 28l393 0-131 151c-11 12-8 29 3 40 11 11 28 9 40-3l170-199c3-3 3-6 6-6 0 0 0-2 0-2 0-3 0-3 3-6 0 0 0-3 0-3 0 0 0-3 0-3 0-3 0-3-3-6 0 0 0-2 0-2 0-3-3-6-6-6l-170-199c-6-9-14-12-20-12z"/>
<glyph glyph-name="clear-light" unicode="&#71;" d="M59 453c10 10 26 10 36 0l161-161 161 161c10 10 26 10 36 0 10-10 10-26 0-36l-161-161 161-161c10-10 10-26 0-36-10-10-26-10-36 0l-161 161-161-161c-10-10-26-10-36 0-10 10-10 26 0 36l161 161-161 161c-10 10-10 26 0 36z"/>
<glyph glyph-name="alert-error" unicode="&#70;" d="M507 80l-222 385c-13 23-45 23-58 0l-222-385c-13-22 3-50 29-50l444 0c26 0 42 28 29 50z m-251 267c15 0 26-12 26-26l-5-147c0-11-9-20-21-20-11 0-21 9-21 20l-4 147c0 14 11 26 25 26z m0-265c-15 0-26 12-26 27 0 14 11 26 26 26 15 0 26-12 26-26 0-15-11-27-26-27z"/>
<glyph glyph-name="alert-success" unicode="&#72;" d="M256 512c-141 0-256-115-256-256 0-141 115-256 256-256 141 0 256 115 256 256 0 141-115 256-256 256z m143-171l-158-177c-4-4-9-6-15-6-4 0-8 1-12 4l-98 79c-9 6-10 19-3 27 6 9 19 10 27 3l84-67 145 164c7 8 20 8 28 1 8-7 9-19 2-28z"/>
<glyph glyph-name="alert-dismiss" unicode="&#73;" d="M437 437c-100 100-262 100-362 0-100-100-100-262 0-362 100-100 262-100 362 0 100 100 100 262 0 362z m-80-282c-8-8-20-8-28 0l-73 73-77-76c-7-8-20-8-27 0-8 7-8 20 0 27l76 77-73 73c-8 8-8 20 0 28 8 8 20 8 28 0l73-73 70 70c7 7 20 7 28 0 7-8 7-21 0-28l-70-70 73-73c8-8 8-20 0-28z"/>
<glyph glyph-name="calendar-add" unicode="&#74;" d="M52 161c-6 0-12 4-12 12l0 180c0 6 4 11 12 11l287 0c8 0 12-5 12-11l0-44c13 2 29 2 42 0l0 140c0 11-9 21-21 21l-54 0c-4 0-5 2-5 6l0 21c0 9-8 15-16 15-7 0-15-6-15-15l0-81c0-9-8-15-15-15-8 0-16 7-16 15l0 44c0 6-4 12-11 12l-92 0c-4 0-6 2-6 5l0 20c0 9-8 15-15 15-8 0-16-6-16-15l0-81c0-9-7-15-15-15-10 0-15 7-15 15l0 44c0 6-4 12-12 12l-48 0c-11-2-21-12-21-23l0-288c0-23 19-42 42-42l161 0c-2 13-2 29 0 42z m320 117c-77 0-138-61-138-138 0-77 61-138 138-138 77 0 138 61 138 138 0 77-61 138-138 138z m54-153l-33 0c-4 0-6-2-6-6l0-33c0-9-7-15-15-15-10 0-15 8-15 15l0 33c0 4-2 6-6 6l-33 0c-9 0-15 7-15 15 0 10 8 15 15 15l33 0c4 0 6 2 6 6l0 33c0 9 7 15 15 15 10 0 15-8 15-15l0-33c0-4 2-6 6-6l33 0c9 0 15-7 15-15 0-10-6-15-15-15z"/>
<glyph glyph-name="printer" unicode="&#75;" d="M489 293l-36 94c-6 12-18 21-29 20l-44 0c-2 0-2 0-4 1-2 2-2 2-2 4l0 41c0 5-2 11-8 15l-42 38c-4 4-10 6-15 6l-150 0c-11 0-21-10-21-21l0-81c0-3-2-5-6-5l-44 0c-13 0-25-8-29-20l-36-94c0-1 0-3 0-5l19-152c2-15 16-29 31-29l29 0c2 0 3 0 3-1 0-2 2-4 0-4l-19-73c-2-6 0-14 4-19 4-6 10-8 17-8l288 0c6 0 13 4 17 8 4 5 6 11 4 19l-19 73c0 2 0 4 0 4 0 0 2 1 4 1l38 0c15 0 31 12 33 29l19 152c0 4 0 5-2 7z m-307 171c0 2 0 2 2 4 2 2 2 2 4 2l111 0c2 0 2 0 4-2l27-25c2-2 2-2 2-4l0-71c0-4-2-6-6-6l-140 0c-2 0-2 0-4 2 0 2 0 4 0 4z m182-418c-2-2-2-2-3-2l-219 0c-2 0-4 0-4 2-2 2-2 4 0 4l29 107c-2 2 0 4 4 4l161 0c2 0 4-2 6-4l28-107c0-2-2-2-2-4z m52 169c-11 0-21 9-21 21 0 11 10 21 21 21 12 0 21-10 21-21 0-12-9-21-21-21z"/>
<glyph glyph-name="share" unicode="&#76;" d="M406 212c-28 0-56-12-76-32l-118 58c2 6 2 12 2 16 0 6 0 12-2 16l118 58c36-36 92-42 134-14 42 28 60 82 40 130-20 48-70 74-120 64-50-10-86-54-86-104 0-6 0-12 2-16l-116-58c-30 30-76 40-116 24-40-16-66-56-66-98 0-42 26-82 66-98 40-16 86-6 116 24l118-58c-2-6-2-12-2-16 0-58 48-106 106-106 58 0 106 48 106 106 0 58-46 104-106 104z"/>
<glyph glyph-name="download" unicode="&#77;" d="M215 465c0 22 18 41 41 41 21 0 41-17 41-41l0-188c0-2 2-5 6-5l54 0c8 0 15-4 17-12 4-8 2-16-4-21l-100-117c-4-4-10-7-16-7-6 0-12 1-15 7l-101 117c-6 5-6 13-4 21 4 8 10 12 17 12l55 0c2 0 5 1 5 5l0 188z m237-335c0 14 11 25 25 25 6 0 14-2 17-8 4-3 8-11 8-17l0-39c0-46-37-83-83-83l-326 0c-46 0-83 37-83 83l0 39c0 14 11 25 25 25 14 0 25-11 25-25l0-39c0-17 16-33 33-33l326 0c17 0 33 16 33 33z"/>
<glyph glyph-name="swap" unicode="&#78;" d="M492 290l-369 0c-9 0-18 8-18 17 0 9 9 18 18 18l328 0-53 52c-6 6-6 18 0 24 6 6 17 6 23 0l85-85c6-6 6-12 3-21-3-8-9-5-17-5z m-393-188c-5 0-8 3-11 6l-85 85c-6 6-6 12-3 21 3 5 9 11 18 11l368 0c9 0 18-8 18-17 0-9-9-18-18-18l-327 0 52-58c6-6 6-18 0-24-3-3-6-6-12-6z"/>
<glyph glyph-name="alert-warning" unicode="&#79;" d="M256 105c20 0 36 15 38 34l25 304c2 18-4 36-16 49-12 13-29 20-47 20-18 0-35-7-47-20-12-13-18-31-16-49l25-304c2-19 18-34 38-34z m0-23c-23 0-41-18-41-41 0-23 18-41 41-41 23 0 41 18 41 41 0 23-18 41-41 41z"/>
<glyph glyph-name="car-trailer" unicode="&#80;" d="M440 285c-19 16-42 33-68 33l-46 0c-20 0-34-10-49-23-6-4-10-8-15-11l-16 0c-3 0-5-1-5-4-6-15-8-47-5-58 1-3 1-5 3-8l-26 0c4 9 4 18 3 23-4 11-6 16-13 28-1 2-2 4-3 5-1 3-3 6-5 10-13 26-36 26-47 26l-119 0c-19 2-29-32-29-55 0-23 14-54 28-54l39 0c5-10 15-18 28-18 13 0 23 6 28 18l53 0c11 0 20 3 27 8l46 0c4-3 9-4 14-4l1 0c4-13 16-21 30-21 14 0 27 8 30 21 14 0 29 0 44 0 14 0 29 0 40 0 1 0 4 0 6 0 4-13 16-21 30-21 14 0 27 8 30 21l29 0c4 0 6 3 6 5l0 40c3 16-16 37-69 39z m-345-96c-10 0-18 8-18 16 0 9 8 16 18 16 10 0 19-8 19-16 0-9-9-16-19-16z m104 27c-5-6-13-9-23-9l-52 0c0 15-14 26-29 26-16 0-29-13-29-26l-37 0c-4 0-18 20-18 44 0 24 10 47 16 47l118 0c13 0 28-1 37-19 3-6 5-9 8-15l3-5c4-9 6-13 10-21 1-8 1-16-4-22z m95-25c-11 0-20 9-20 19 0 11 9 19 20 19 11 0 21-9 21-19 0-12-11-19-21-19z m152 0c-11 0-21 9-21 19 0 11 9 19 21 19 12 0 21-9 21-19 0-12-10-19-21-19z m55 21l-23 0c-1 15-15 28-32 28-17 0-30-13-32-28-14 0-28 0-45 0-15 0-30 0-43 0-1 15-15 28-32 28-17 0-30-13-32-28-9 0-14 4-16 13-1 9 0 34 4 48l14 0c1 0 3 0 4 1 6 5 11 9 18 13 14 11 25 20 42 20l46 0c19 0 37-9 62-32 1-1 3-1 4-1 49-1 62-19 62-28l0-34z m-449 37l46 0 0 39-46 0z m11 29l24 0 0-18-24 0z m99 7l-1 3-51 0 0-39 47 0c6 0 11 1 14 5 1 1 2 6 0 13-1 3-8 15-9 18z m-5-25l-35 0 0 18 33 0c3-5 6-12 8-14 1-1 1-3 1-3-2-1-3-1-7-1z"/>
<glyph glyph-name="dots-vertical" unicode="&#81;" d="M320 256c0-35-29-64-64-64-35 0-64 29-64 64 0 35 29 64 64 64 35 0 64-29 64-64z m0-192c0-35-29-64-64-64-35 0-64 29-64 64 0 35 29 64 64 64 35 0 64-29 64-64z m0 384c0-35-29-64-64-64-35 0-64 29-64 64 0 35 29 64 64 64 35 0 64-29 64-64z"/>
<glyph glyph-name="arrow-sml-right" unicode="&#82;" d="M377 273l-222 203c-15 14-39 3-39-17l0-406c0-20 24-31 39-17l222 203c10 9 10 25 0 34z"/>
<glyph glyph-name="facebook" unicode="&#83;" d="M256 512c141 0 256-115 256-256 0-128-94-234-216-253l0 179 60 0 11 74-71 0 0 48c0 20 10 40 42 40l32 0 0 63c0 0-29 5-57 5-59 0-97-35-97-100l0-56-65 0 0-74 65 0 0-179c-122 19-216 125-216 253 0 141 115 256 256 256z"/>
<glyph glyph-name="instagram" unicode="&#85;" d="M153 465c-25-2-38-6-48-9-12-5-20-11-29-20-9-9-15-17-20-29-4-9-8-23-9-48-1-26-1-34-1-103 0-69 0-77 1-103 2-25 6-38 9-48 5-12 11-20 20-29 9-9 17-15 29-20 9-4 23-8 48-9 26-1 34-1 103-1 69 0 77 0 103 1 25 2 38 6 48 9 12 5 20 11 29 20 9 9 15 17 20 29 4 9 8 23 9 48 1 26 1 34 1 103 0 69 0 77-1 103-2 25-6 38-9 48-5 12-11 20-20 29-9 9-17 15-29 20-9 4-23 8-48 9-26 1-34 1-103 1-69 0-77 0-103-1z m208 46c28-2 47-6 63-12 16-7 31-16 44-30 14-14 24-29 30-45 7-16 11-35 12-63 2-27 2-35 2-105 0-70 0-78-1-104-2-28-6-47-12-63-7-16-16-31-30-45-14-14-29-24-45-30-16-7-35-11-63-12-27-2-35-2-105-2-70 0-78 0-105 1-28 2-47 6-63 12-16 7-31 16-44 30-14 14-24 29-30 45-7 16-11 35-12 63-2 27-2 35-2 105 0 70 0 78 1 105 2 28 6 47 12 63 7 16 16 31 30 45 14 14 29 23 45 30 16 6 35 10 63 11 27 2 35 2 105 2 70 0 78 0 105-1z m26-255c0-73-58-131-131-131-73 0-131 58-131 131 0 73 58 131 131 131 73 0 131-58 131-131z m-46 0c0 47-38 85-85 85-47 0-85-38-85-85 0-47 38-85 85-85 47 0 85 38 85 85z m82 136c0-17-13-31-31-31-17 0-31 14-31 31 0 18 14 31 31 31 18 0 31-13 31-31z"/>
<glyph glyph-name="search" unicode="&#86;" d="M361 301c0-83-67-150-150-150-83 0-151 67-151 150 0 83 68 151 151 151 83 0 150-68 150-151z m85-292c11-12 30-11 42 0 11 12 12 31 0 42l-115 115c71 86 64 211-16 287-80 77-205 79-287 5-83-75-93-199-25-287 68-87 191-107 283-45z"/>
<glyph glyph-name="pin" unicode="&#87;" d="M479 304c3-60-16-116-56-160-7-7-12-14-18-18l-137-123c-4-3-9-5-12-5-5 0-8 2-12 5l-137 123c-90 80-99 221-18 312 42 48 103 74 165 74 55 0 108-20 147-56 45-40 71-94 78-152z m-36-3c-4 51-25 97-63 130-35 31-79 48-126 48-54 0-105-23-140-63-69-77-63-196 15-266l125-112 126 112 15 15c33 38 49 86 48 136z m-103-4c0-48-38-86-86-86-48 0-86 38-86 86 0 48 38 86 86 86 48 0 86-39 86-86z m-33-1c0 29-23 52-53 52-29 0-53-23-53-52 0-30 24-53 53-53 30 0 53 25 53 53z"/>
<glyph glyph-name="varka" unicode="&#88;" d="M1 131c-1 4-1 9 2 14 1 4 7 7 11 7l254 0 0 24-191 0c-6 0-10 4-13 8-3 6-1 11 2 16l202 256 0 27c0 8 6 14 14 14 9 0 14-6 14-14l0-27 150-225c3-3 4-6 4-10 0-9-5-14-14-14l-140 0 0-52 191 0c5 0 9-3 12-8 3-4 3-9 1-14l-53-109c-2-6-7-9-12-9l-368 0c-6 0-10 3-13 9z m408 102l-113 171 0-171z m-141-28l0 206-163-206z m196-80l-427 0 38-82 351 0z"/>
<glyph glyph-name="cocktail" unicode="&#89;" d="M0 415c0 49 40 89 89 89 43 0 80-32 88-73l201 0 59 59c3 3 7 5 11 5 5 0 9-2 11-5 4-3 5-7 5-11 0-4-1-8-5-11l-36-37 67 0c6 0 11-3 14-10 2-6 2-12-3-17l-198-213 0-151 59 0c10 0 16-7 16-16 0-10-6-16-16-16l-148 0c-10 0-16 6-16 16 0 9 6 16 16 16l59 0 0 151-136 149c-14-9-31-14-48-14-23 0-46 9-63 26-17 17-26 39-26 63z m187-83l102-111 102 111z m266 67l-62 0-35-35 65 0z m-107 0l-220 0 32-35 152 0z m-314 16c0-15 6-30 17-40 10-11 25-17 40-17 10 0 18 3 26 6l-37 40c-5 5-6 11-3 17 2 7 8 10 14 10l55 0c-7 24-29 41-55 41-15 1-30-6-40-16-11-11-17-26-17-41z"/>
<glyph glyph-name="sun" unicode="&#90;" d="M179 363c7 0 12 6 12 12l0 40c0 6-5 12-12 12-7 0-12-6-12-12l0-40c0-6 5-12 12-12z m-98-32c2-2 5-4 8-4 4 0 7 1 9 4 2 2 4 5 4 8 0 3-2 6-4 9l-28 28c-5 4-13 4-18 0-2-3-3-6-3-9 0-3 1-6 3-8z m-16-80c0 7-6 12-13 12l-40 0c-7 0-12-5-12-12 0-7 5-12 12-12l40 0c7 0 13 6 13 12z m16-79l-29-28c-2-2-3-5-3-8 0-4 1-7 3-9 2-2 6-4 9-4 3 0 6 1 9 4l28 28c2 2 4 5 4 8 0 4-2 7-4 9-5 5-12 5-17 0z m188 155c3 0 6 1 9 4l28 28c2 2 4 5 4 8 0 3-2 6-4 9-5 4-12 4-17 0l-29-28c-2-3-3-6-3-9 0-3 1-6 3-8 2-3 6-4 9-4z m243-157c0-47-39-85-87-85l-228 0c-36 0-67 29-67 66 0 7 1 13 4 19-29 16-49 47-49 81 0 52 42 93 94 93 41 0 76-25 89-60 21 23 50 36 81 37 44 0 84-28 98-69 38-10 65-43 65-82z m-320 46c6 26 28 47 56 52-8 30-36 53-69 53-38 0-70-32-70-70 0-25 14-48 36-60 11 14 28 24 47 25z m233-107c34 0 62 27 63 62 0 29-22 55-52 60-5 0-9 4-10 8-9 35-41 58-77 58-32 0-60-18-73-45-2-5-7-7-12-7l-5 0c-24 0-43-18-44-42 0-3-2-6-4-8-3-2-6-3-9-3l-5 0c-23 0-42-19-42-41 0-24 19-42 42-42z"/>
<glyph glyph-name="suitcase" unicode="&#48;" d="M108 240c-3 3-5 6-5 10 0 5 2 7 5 10l80 80c2 3 6 5 10 5 4 0 7-2 10-5l49-49c3-3 5-6 5-10 0-5-2-8-5-10l-80-81c-3-2-5-4-10-4-3 0-7 2-10 4z m30 10l29-29 60 60-29 29z m172-148c-34 0-60 26-61 59 0 32 27 60 61 60 32 0 59-26 59-60l0-3c0-4-1-7-4-10l-42-42c-3-3-6-4-11-4z m-32 59c0-16 13-29 29-30l33 33c-1 16-14 29-30 29-18 0-31-14-32-32z m-278 182c0 41 33 73 73 73l96 0 0 47c0 9 5 14 14 14l142 0c9 0 15-5 15-14l0-45 96 0c41 0 73-34 73-73l0-239c0-41-34-73-73-73l-363 0c-41 0-73 34-73 73z m116 44l0-10c0-42-33-77-77-77-3 0-7 1-10 1l0-151c3 1 7 1 10 1 42 0 77-35 77-77l0-9 276 0c-1 3-1 6-1 10 0 43 35 78 77 78 3 0 7-2 10-2l0 150c-3-1-7-1-10-1-42 0-77 35-77 77 0 3 1 7 1 10z m-87-280c0-24 19-43 44-42l13 0c1 3 1 6 1 10 0 27-22 48-48 48-3 0-7 0-10-1z m407-43c23 0 42 19 42 42l0 15c-3 1-6 1-10 1-26 0-48-22-48-48 0-3 0-7 1-10z m42 281c0 23-19 42-42 42l-15 0c-1-3-1-6-1-10 0-26 22-48 48-48 3 0 7 0 10 1z m-280 103l0-32 113 0 0 32z m-125-61c-25 0-44-19-44-42l0-15c3-1 6-1 10-1 26 0 48 22 48 48l0 10z"/>
<glyph glyph-name="ship" unicode="&#49;" d="M51 173l22 8 27-79 28 11-6 21 117 47 0-62 32 0 0 62 117-47-8-25 30-11 27 83 22-8 12 30-78 32 0 96c0 42-35 76-77 76l-15 0 0 60c0 17-15 32-32 32l-30 0c-17 0-32-15-32-32l0-60-11 0c-42 0-77-34-77-76l0-96-81-32z m60-9l-11 30 139 56 0-35z m290 0l-128 51 0 35 139-56z m-160 303l30 0 0-60-28 0z m-90-136c0 23 20 44 45 44l122 0c23 0 45-19 45-44l0-84-88 35c-10 4-23 4-34 0l-87-35 0 84z m333-318c-32-4-66 4-91 25-39-32-99-32-137 0-38-32-98-32-137 0-21-17-49-25-76-25-5 0-11 0-15 0l4 32c28-4 58 6 77 25l13 11 10-13c15-15 34-25 56-25 21 0 42 8 55 25l13 13 13-13c15-15 34-25 55-25 22 0 43 8 56 25l10 13 13-11c22-19 49-29 77-25z m-168 303l-120 0 0 32 122 0 0-32z"/>
<glyph glyph-name="sea-star" unicode="&#50;" d="M466 352c31-4 41-23 41-34 7-18-2-39-21-59l-61-59c-9-9-15-23-12-36l14-91c5-30-8-45-17-51-7-5-15-8-25-8-12 0-24 4-37 11l-75 41c-5 3-10 4-17 4-6 0-12-1-17-4l-76-41c-24-13-48-14-64-3-8 6-21 20-17 51l15 91c2 15-3 29-12 37-15 16-40 38-62 61-20 18-27 41-22 59 3 10 13 27 44 31l93 13c13 2 24 9 30 21l38 76c13 22 30 36 50 35 19 0 36-13 49-35l39-76c5-12 17-20 29-21z m3-71c11 12 17 23 12 30-1 7-10 11-21 13l-92 12c-22 5-41 19-51 37l-39 76c-5 13-15 20-22 20-9 0-17-7-25-19l-38-76c-8-19-30-33-51-36l-92-13c-12-3-20-7-22-13-2-8 3-19 15-31 21-21 45-43 61-59 15-15 24-39 20-60l-15-92c-1-11 0-20 6-24 7-6 20-3 34 4l75 41c9 6 19 9 30 9l3 0c10-2 21-5 30-9l75-41c14-7 27-8 34-4 6 4 7 13 6 24l-14 92c-3 21 4 45 19 60z m-213 123c7 0 14 6 14 13 0 7-7 14-14 14-8 0-15-6-15-14 0-7 7-13 15-13z m0-59c8 0 15 7 15 15 0 9-7 16-15 16-9 0-16-7-16-16 0-8 7-15 16-15z m0-21c-12 0-20-9-20-20 0-11 8-20 20-20 11 0 19 9 19 20 0 11-8 20-19 20z m-176-16c-8 3-16-1-18-8-2-7 2-16 9-17 7-3 16 1 17 8 3 7-1 16-8 17z m68-36c1 4 1 9-1 13-3 4-6 6-11 8-4 1-9 1-13-1-4-3-7-6-8-11-1-8 3-17 13-19 4-2 8-2 12 0 4 2 6 6 8 10z m34-31c11-3 23 2 25 12 3 12-2 23-12 26-12 2-23-3-26-13-4-11 3-23 13-25z m-43-146c-4-5-3-14 3-18 6-4 14-3 18 3 5 5 3 14-2 18-6 4-15 3-19-3z m31 50c-5-7-3-17 5-23 7-5 17-3 22 4 6 7 3 17-4 23-8 4-18 3-23-4z m30 48c-5-9-4-21 4-27 9-6 22-4 27 4 6 9 5 21-4 27-8 7-21 4-27-4z m227 116c-7-2-11-9-8-16 3-7 10-12 17-9 7 3 11 10 8 17-3 7-10 11-17 8z m-56-15c-9-3-13-13-10-21 2-9 12-13 21-10 8 3 13 13 10 21-3 9-13 13-21 10z m-45-52c10 3 16 14 13 25-1 5-5 10-10 12-5 2-10 3-15 1-10-3-17-14-13-25 4-12 16-17 25-13z m27-141c-5-4-7-13-2-18 4-6 12-7 18-3 6 4 7 13 3 18-4 6-13 7-19 3z m-35 49c-7-5-9-15-4-22 5-7 15-9 23-4 7 5 8 15 4 22-6 9-16 10-23 4z m-7 45c-6 9-19 12-28 5-9-6-12-19-5-29 6-8 19-11 29-4 8 7 10 20 4 28z"/>
<glyph glyph-name="telephone" unicode="&#51;" d="M389 189c29-13 61-30 48-73-11-38-58-65-97-70l-8 0c-38 0-129 31-215 117-85 84-123 184-117 223 5 39 33 85 71 97 7 2 13 3 18 3 29 0 41-25 56-51l4-9c19-39 37-72 17-92-6-6-13-11-20-15 8-15 23-43 55-74 31-30 58-47 73-54 5 6 10 14 16 20 3 4 11 8 22 8 18 0 42-12 68-25z m-13-31l-9 5c-19 10-44 22-54 22-6-7-13-19-15-23-4-8-13-12-20-9-2 1-46 15-100 69-53 53-68 98-69 100-2 8 1 17 9 20 3 2 16 9 24 16 0 9-14 37-23 53l-4 9c-13 24-18 33-26 33-2 0-5 0-9-3-23-6-43-42-47-69-2-22 24-110 109-194 72-72 157-107 190-107l3 0c27 3 63 24 70 47 4 13 2 17-29 31z"/>
<glyph glyph-name="benefits" unicode="&#53;" d="M132 288l75 92-9 76c-1 5 1 10 5 13 42 45 90 40 120-17 26-49 19-79 2-128l135 1c11 1 35-18 42-27 15-19 12-41-4-59-5-5-11-10-17-14 31-26 20-52-10-72 22-24 21-49-7-66 24-30-13-59-36-72-3-2-6-2-9-2l-275 1c-8 0-15 7-15 15l-1 249c0 4 1 7 4 10z m26-15l1-229 257-1c11 7 21 14 24 21 4 7-18 11-21 23-2 8 2 16 10 19 12 3 23 8 26 13 5 10-19 22-23 30-4 7-1 16 6 20 37 20 43 24 5 45-5 2-9 8-8 14 0 6 4 12 10 14 14 5 25 12 31 19 6 6 8 11 3 18-4 5-12 11-22 16l-154-2c-5 0-10 3-13 7-3 4-3 9-1 14 19 46 32 78 7 124-18 33-40 41-67 15l8-74c2-18-64-89-79-106z m-70 21c8 0 14-6 14-15l0-251c0-8-6-15-14-15l-74 0c-8 0-14 7-14 15l0 251c0 9 6 15 14 15z m-14-30l-46 0 0-221 46 0z"/>
<glyph glyph-name="youtube" unicode="&#84;" d="M512 275l0-38c0-42-5-83-5-83 0 0-5-35-21-51-19-20-41-20-51-21-71-5-179-5-179-5 0 0-133 1-174 5-11 2-37 1-56 21-16 17-21 51-21 51 0 0-5 42-5 83l0 38c0 42 5 83 5 83 0 0 5 35 21 51 19 20 41 20 51 21 71 5 179 5 179 5 0 0 108 0 179-5 10-1 32-1 51-21 16-17 21-51 21-51 0 0 5-41 5-83z m-171-14l-138 71 0-142z"/>
<glyph glyph-name="bookings" unicode="&#52;" d="M130 318c4 2 7-2 9-7 2-4-2-8-7-10-4-2-8 2-8 6 0 4 2 9 6 11z m-8 32c4 0 8-2 8-9 2-4-2-8-6-10-5 0-9 4-9 8 0 2 0 9 7 11z m15-64c4 2 8-2 10-7 2-4-2-8-6-10-4-2-9 2-11 6 0 4 4 9 7 11z m10-32c4 2 9-2 11-7 2-4-2-8-7-10-4-2-8 2-10 6-2 4 2 11 6 11z m9-32c4 2 8-2 10-7 3-4-2-8-6-10-4-2-9 2-11 6-2 7 2 11 7 11z m8-32c5 2 9-2 11-7 2-4-2-8-6-8-5-2-9 2-11 6 0 5 2 7 6 9z m7-111l283 77c41 10 67 53 56 94l-32 125c-4 15-19 24-32 20-4-2-11-7-9-13 2-7 7-11 13-9 4 0 7-2 7-4l32-126c4-15 2-30-5-40-6-13-19-22-32-26l-286-77c-2 0-4 0-4 0 0 0-2 2-4 5-2 4-9 8-13 8-4-2-11-6-8-13 0-8 6-15 12-19 5-2 9-4 13-4 4 0 4 0 9 2z m94 173c-3 0-5 0-7 2l-38 21c-5 2-7 7-5 11 3 4 7 6 11 4l32-19 41 72c2 5 6 5 10 5 11-2 11-7 9-13l-47-81c-2 0-2-2-6-2z m89 175c15 0 28-11 32-26l39-143c4-19-5-36-24-40l-299-81c-4 0-4-3-8-3-15 0-28 11-32 26l-39 145c-2 9-2 17 5 24 4 8 10 14 19 17l299 81c4 0 6 0 8 0m0 21c-4 0-11 0-15-2l-298-81c-30-9-47-39-39-66l39-143c6-26 27-41 53-41 4 0 11 0 15 2l298 81c30 9 47 39 39 67l-39 142c-6 24-27 41-53 41z"/>
<glyph glyph-name="file" unicode="&#54;" d="M418 111l0-17c0 0 2 0 2 0 2 0 5 2 7 2l12 19 0 26z m21 102l0 207c0 0 0 2 0 2 0 0 0 0 0 3-2 2-2 2-2 2l-81 81c0 0 0 0-2 2 0 0-2 2-4 2 0 0-2 0-2 0l-273 0c-7 0-11-4-11-11l0-490c0-7 4-11 11-11l354 0c6 0 10 4 10 11l0 36c45 6 77 49 71 94-4 38-32 68-71 72z m-81 261l43-43-43 0z m60-451l-331 0 0 468 250 0 0-71c0-6 4-10 11-10l70 0 0-197c-45-6-77-49-70-94 4-36 34-66 70-72z m21 39c-8-2-14-2-23 0-36 6-62 43-55 79 4 30 27 51 55 57 9 3 15 3 23 0 37-6 62-42 56-79-4-29-26-53-56-57z m0 363c0 2-2 2-2 2 0 0 2-2 2-2z m-96-77l-204 0c-5 0-9 2-9 8 2 2 4 7 9 7l204 0c5 0 9-2 9-9-2-4-4-6-9-6z m-4-58l-196 0c-4 0-9 2-9 9 0 4 3 8 9 8l196 0c4 0 9-2 9-8-2-7-5-9-9-9z m0-49l-196 0c-4 0-9 2-9 9 0 4 3 8 9 8l196 0c4 0 9-2 9-8-2-7-5-9-9-9z m-192-139l-4 0c-4 0-9 3-9 9 0 4 3 8 9 8l4 0c4 0 9-2 9-8-2-6-5-9-9-9z m118 15l-7 0c-4 0-8-2-8-8 0-4 2-9 8-9l7 0c4 0 8 2 8 9 0 4-4 8-8 8z m-39 0l-6 0c-5 0-9-2-9-8 0-4 2-9 9-9l6 0c4 0 9 2 9 9-2 4-5 8-9 8z m-40 0l-7 0c-4 0-8-2-8-8 0-4 2-9 8-9l7 0c4 0 8 2 8 9 0 4-4 8-8 8z m117-15l-4 0c-5 0-9 3-9 9 0 4 2 8 9 8l4 0c4 0 8-2 8-8-2-6-6-9-8-9z m-88 86l-72 0c-4 0-9 2-9 8 0 5 3 9 9 9l72 0c5 0 9-2 9-9-2-6-4-8-9-8z m252-22c-2 3-8 3-10-2l-18-23-21-30-23 17c-5 2-9 2-11-2-2-4-2-9 2-11l30-23c0 0 0 0 2 0 0 0 2 0 2 0 2 0 5 2 7 2l12 19 28 41c4 4 4 8 0 12z m0 0c-2 3-8 3-10-2l-18-23-21-30-23 17c-5 2-9 2-11-2-2-4-2-9 2-11l30-23c0 0 0 0 2 0 0 0 2 0 2 0 2 0 5 2 7 2l12 19 28 41c4 4 4 8 0 12z m0 0c-2 3-8 3-10-2l-18-23-21-30-23 17c-5 2-9 2-11-2-2-4-2-9 2-11l30-23c0 0 0 0 2 0 0 0 2 0 2 0 2 0 5 2 7 2l12 19 28 41c4 4 4 8 0 12z m0 0c-2 3-8 3-10-2l-18-23-21-30-23 17c-5 2-9 2-11-2-2-4-2-9 2-11l30-23c0 0 0 0 2 0 0 0 2 0 2 0 2 0 5 2 7 2l12 19 28 41c4 4 4 8 0 12z m2-10l-27-41-15-19c-2-2-5-2-7-2 0 0-2 0-2 0 0 0-2 0-2 0l-30 23c-2 2-2 9 0 11 2 2 4 2 9 2l23-17 21 30 18 23c2 3 8 5 10 3 4-5 4-11 2-13z"/>
<glyph glyph-name="search-menu" unicode="&#55;" d="M292 202l29-36-23-19c-4-2-4-6-6-10 0-4 0-6 4-11l89-107c10-13 25-21 42-21 17-2 31 2 44 13 13 10 21 23 23 40 2 16-4 31-13 44l-40 48c-2 2-6 7-10 7-4 0-9 0-11-3-4-2-6-6-6-10 0-4 0-6 4-11l40-48c4-6 9-15 7-21 0-9-7-17-13-21-6-4-15-9-23-7-9 0-17 7-21 11l-80 95 61 46c4 2 4 7 6 11 0 4 0 6-4 10-2 2-6 7-11 7-4 0-8 0-10-3l-23-21-30 36 2 2c63 61 70 158 13 226-32 36-74 57-120 63-47 4-93-8-129-38-76-57-86-164-25-238 29-36 72-57 118-63 40-4 80 4 114 25z m-114 2c-40 5-74 24-99 53-25 30-36 65-32 103 7 36 26 70 55 91 30 25 68 36 108 32 40-5 73-24 99-53 50-61 40-148-21-196-32-23-70-34-110-30z"/>
<glyph glyph-name="ticket" unicode="&#56;" d="M490 167l-260 338c-2 4-6 6-10 6-4 0-8 0-10-2l-44-35c-6-4-8-14-4-20 6-7 7-17 7-29-3-25-27-43-54-39-10 0-19 6-27 12-6 4-14 6-18 0l-44-31c-6-6-8-14-2-20l260-338c2-4 6-6 10-6 4 0 8 0 10 2l42 33c6 4 8 12 4 18-6 9-7 19-6 31 4 25 28 45 53 41 10-2 19-6 27-14 6-6 14-6 20-2l44 33c6 6 6 16 2 22z m-412 204c10-8 21-12 33-14 41-6 80 23 86 64 2 12 0 26-4 37l23 18 119-154-162-124-118 155z m358-230c-10 8-21 12-33 14-41 6-80-23-86-64-2-12 0-26 4-37l-23-18-107 140 161 125 107-140z"/>
<glyph glyph-name="phone" unicode="&#57;" d="M378 0c-13 0-37 2-71 13-60 20-120 58-178 116-89 89-129 158-129 232 0 9 7 15 13 15 9 0 14-6 16-13 0-65 38-127 122-212 129-129 232-120 236-120 9 0 18 2 27 7 9 4 18 9 27 15 0 0 2 0 2 3l18 17c9 9 9 25 0 32l-71 71c-9 9-25 9-32 0l-35-36c-5-4-11-4-18-2-2 2-4 2-7 4-24 14-55 32-89 65-33 33-51 67-64 89l0 2c0 3-3 5-3 7-8 2-8 9-4 13l36 36c9 9 9 24 0 31l-72 74c-4 4-9 6-15 6-7 0-14-2-18-6l-18-20c-4-5-6-12-11-16-2-7-11-9-18-7-6 5-9 14-6 20 4 7 8 14 13 20l20 23c9 9 22 15 36 15 13 0 26-4 35-15l71-72c20-20 20-53 0-73l-26-29c13-22 29-51 60-82 31-32 60-47 82-60l27 31c20 20 53 20 73 0l72-72c20-20 20-53 0-73l-20-20c-3-2-3-2-5-2-9-7-20-11-29-16-11-4-22-7-33-9-5-2-7-2-14-2z m134 247c0 147-118 265-265 265-9 0-15-7-15-16 0-8 6-15 15-15 131 0 236-105 236-236 0-9 7-16 16-16 6 3 13 9 13 18z m-93 11c0 89-74 161-161 161-9 0-15-7-15-16 0-9 6-16 15-16 74 0 134-60 134-133 0-9 6-16 15-16 7 5 12 11 12 20z"/>
<glyph glyph-name="external-link" unicode="&#33;" d="M432 192l-32 0c-9 0-16-7-16-16l0-112-320 0 0 320 144 0c9 0 16 7 16 16l0 32c0 9-7 16-16 16l-160 0c-27 0-48-21-48-48l0-352c0-27 21-48 48-48l352 0c27 0 48 21 48 48l0 128c0 9-7 16-16 16z m56 320l-128 0c-21 0-32-26-17-41l36-36-244-243c-5-5-7-11-7-17 0-7 2-13 7-17l23-23c4-5 10-7 17-7 6 0 12 2 17 7l243 244 36-36c15-15 41-5 41 17l0 128c0 13-11 24-24 24z"/>
<glyph glyph-name="external-link-alt" unicode="&#34;" d="M171 512l0-68 225 0-396-396 48-48 396 396 0-225 68 0 0 341z"/>
<glyph glyph-name="email" unicode="&#35;" d="M88 388c-25 0-45-18-45-41l0-185c0-22 20-41 45-41l336 0c25 0 45 19 45 41l0 185c0 23-20 41-45 41z m4-27l328 0-155-126c-6-5-12-5-18 0z m-19-22l105-85-105-91z m366 0l0-176-104 91z m-127-103l99-87-310 0 99 86 27-21c16-13 42-13 59 0z"/>
<glyph glyph-name="fax" unicode="&#36;" d="M201 47l226 0c21 0 38 15 38 34l0 186-264 0c-7 0-13 4-13 10 0 7 6 11 13 11l266 0c13 0 24-9 24-21l0-188c0-32-30-58-64-58l-226 0c-7 0-13 5-13 11 0 11 6 15 13 15z m6 435l139 0c4 0 6-2 8-4l100-90c3-2 5-4 5-8l0-47c0-7-7-11-13-11-7 0-13 4-13 11l0 36-77 0c-13 0-21 9-21 19l0 71-113 0 0-126c0-7-7-11-13-11-6 0-13 4-13 11l0 136c-2 7 5 13 11 13z m154-89l53 0-53 46z m-47-197l17 0c6 0 12 5 12 11 0 6-6 11-12 11l-17 0c-7 0-13-5-13-11 0-6 4-11 13-11z m-73 0l17 0c7 0 13 5 13 11 0 6-6 11-13 11l-17 0c-6 0-13-5-13-11 0-6 7-11 13-11z m143 0l17 0c6 0 13 5 13 11 0 6-7 11-13 11l-17 0c-6 0-13-5-13-11 0-6 7-11 13-11z m-70-51l17 0c6 0 12 4 12 11 0 6-6 10-12 10l-17 0c-7 0-13-4-13-10 0-7 4-11 13-11z m-73 0l17 0c7 0 13 4 13 11 0 6-6 10-13 10l-17 0c-6 0-13-4-13-10 0-7 7-11 13-11z m143 0l17 0c6 0 13 4 13 11 0 6-7 10-13 10l-17 0c-6 0-13-4-13-10 0-7 7-11 13-11z m-70-51l17 0c6 0 12 4 12 11 0 6-6 10-12 10l-17 0c-7 0-13-4-13-10 0-5 4-11 13-11z m-73 0l17 0c7 0 13 4 13 11 0 6-6 10-13 10l-17 0c-6 0-13-4-13-10 0-5 7-11 13-11z m143 0l17 0c6 0 13 4 13 11 0 6-7 10-13 10l-17 0c-6 0-13-4-13-10 0-5 7-11 13-11z m-363 188c0 17 5 34 15 49 11 15 26 27 43 34 21 8 45 10 68 4 11-2 17-11 17-21l0-69c0-14-13-27-30-27l-10 0 0-109 10 0c17 0 30-13 30-28l0-68c0-11-6-19-17-21-23-7-47-5-68 4-17 8-32 19-43 34-10 17-15 34-15 51z m26-167c0-13 4-25 11-36 8-11 19-19 32-26 15-6 34-8 49-4l0 68c0 2 0 2-2 2 0 0-3 3-5 3l-21 0c-4 0-6 2-9 4-2 2-4 4-4 8l0 133c0 2 2 6 4 8 3 2 7 4 9 4l23 0c3 0 5 3 5 5l0 64c-15 4-34 4-49-2-13-7-24-15-32-26-9-11-11-23-11-36z"/>
<glyph glyph-name="remove" unicode="&#37;" d="M128 282l256 0 0-52-256 0z m128 204c-128 0-230-102-230-230 0-128 102-230 230-230 128 0 230 102 230 230 0 128-102 230-230 230z m0-409c-100 0-179 79-179 179 0 100 79 179 179 179 100 0 179-79 179-179 0-100-79-179-179-179z"/>
<glyph glyph-name="drink" unicode="&#38;" d="M414 304c38 48 68 86 68 113-2 6-6 11-12 11l-247 0c-3 49-45 86-93 82-49-1-88-43-85-93 0-50 41-89 91-89 10 0 19 2 28 5l23-29c45-57 102-128 102-187l0-93-56 0c-7 2-12-4-13-10l0-2c1-7 6-12 13-12l139 0c7 0 12 5 12 12 0 8-5 12-12 12l-57 0 0 93c-2 59 54 130 99 187z m-278 48c-37-1-67 29-67 65 0 36 27 65 64 66 31 2 60-22 66-54l-66 0c-7 0-13-4-13-10l0-2c0-15 8-33 23-54l8-11z m24 30c-5 8-11 16-14 23l309 0c-3-7-8-16-12-23z m140-207c-20 49-59 99-95 144-11 14-21 26-30 39l250 0-29-39c-36-45-77-95-96-144z"/>
<glyph glyph-name="accommodation" unicode="&#39;" d="M6 419c-3 0-6-2-6-6l0-308c0 0 0 0 0-1 0-3 3-5 6-5l26 0c3 0 6 3 6 6l0 121 158 0 0-45c0-3 3-6 6-6l205 0c3 0 6 3 6 6l0 45 61 0 0-121c0 0 0 0 0-1 0-3 3-5 6-5l26 0c3 0 6 3 6 6l0 308c0 3-3 6-6 6l-26 0c-3 0-6-3-6-6l0-115-61 0 0 12 15 0c3 0 6 3 6 6l0 38c0 3-3 6-6 6l-226 0c0 0 0 0-2 0l-28 0c-3 0-6-3-6-6l0-38c0-3 3-6 6-6l24 0 0-12-158 0 0 115c0 3-3 6-6 6z m6-12l14 0 0-115c0 0 0 0 0-1l0-180-14 0z m474 0l14 0 0-296-14 0 0 119c0 0 0 0 0 2z m-364-31c-17 0-33-15-33-33 0-18 15-33 33-33 18 0 33 15 33 33 0 18-15 33-33 33z m0-12c12 0 21-9 21-21 0-12-9-21-21-21-12 0-21 9-21 21 0 12 10 21 21 21z m57-15l17 0 0-25-17 0z m234 0l9 0 0-25-9 0z m-205-1l194 0 0-54c0 0 0 0 0-2l0-105-194 0z m-170-62l158 0 0-48-158 0c0 0 0 48 0 48z m375 0l61 0 0-48-61 0z"/>
<glyph glyph-name="entertainment" unicode="&#40;" d="M346 230c20 9 38 15 58 20 6 1 9 6 7 12-1 6-6 9-12 8-21-5-44-12-66-23-12 15-27 30-42 45-17 17-33 32-49 44 14 16 25 36 34 57 13 33 19 69 19 110 0 4-4 9-9 9-6 0-10-5-10-11 0-63-17-114-49-153-6 4-12 9-16 12-30 19-47 24-57 15-3-3-5-6-5-9l-147-352c-2-3 0-8 1-11 2-1 5-3 8-3 1 0 3 0 4 2l352 147c3 0 6 2 9 5 10 10 5 27-15 57-6 6-10 12-15 19z m-266-159c-2-14-6-21-9-26l-42-18 42 101c9-20 12-39 9-57z m62 34c-5-22-16-34-19-36l-27-10c6 21 8 54-15 98l30 70c32-60 34-99 31-122z m34-15l-21-9c2 5 5 11 5 18 7 41-5 92-40 151l11 26c9-11 18-26 23-35 1-5 6-6 9-6 1 0 3 0 4 1 5 2 8 8 5 14-6 14-21 35-32 47l17 39c3-6 6-11 10-18 3-5 6-9 9-14 35-51 33-105 27-140-6-38-21-66-27-74z m77 33l-48-19c7 15 13 35 18 57 4 24 6 57-2 92 5-5 9-11 15-15 15-15 31-29 46-41-2-48-24-71-29-74z m35 14c6 11 10 26 12 44 6-5 12-9 18-12 6-5 12-8 18-11z m36 51c-21 15-47 38-73 62-25 26-46 51-61 72-15 21-20 32-20 36 5-1 15-4 36-19 3-2 6-5 9-8 0 0-1-1-1-1-5-5-5-11 0-14 1-1 4-3 7-3 3 0 5 2 8 3 1 2 3 3 3 5 15-12 32-27 47-42 13-14 25-28 37-41-1-2-3-2-6-3-4-3-6-9-3-14 2-3 5-4 9-4 2 0 3 0 5 1 3 2 6 3 9 5 4-6 9-11 12-17 15-21 19-31 19-36-6 0-16 3-37 18z m-143 35c-3 4-8 7-14 4-4-1-7-7-4-13 1-5 6-6 9-6 1 0 1 0 3 0 6 4 9 9 6 15z m192 134c2-2 5-3 8-3 3 0 5 1 8 3 22 22 58 33 84 35 6 0 9 6 9 10 0 6-6 9-11 9-30-3-70-13-98-41-4-3-4-9 0-13z m131 53c-6 1-12-2-13-8 0-4 3-10 7-10 2 0 2 0 3 0 5 0 9 3 9 7 4 5 0 9-6 11z m-430 18l10 0 0-11c0-6 5-10 11-10 6 0 10 4 10 10l0 11 11 0c6 0 10 4 10 10 0 6-4 11-10 11l-12 0 0 9c0 6-5 10-11 10-6 0-10-4-10-10l0-11-9 0c-6 0-11-4-11-10 0-5 5-9 11-9z m233-97l11 0 0-10c0-6 4-11 10-11 6 0 11 5 11 11l0 10 10 0c6 0 11 5 11 11 0 6-5 10-11 10l-10 0 0 9c0 6-5 11-11 11-6 0-10-5-10-11l0-10-11 0c-6 0-10-5-10-11 1-4 6-9 10-9z m140-236l-10 0 0 10c0 6-5 11-11 11-6 0-10-5-10-11l0-10-9 0c-6 0-11-5-11-11 0-6 5-10 11-10l10 0 0-11c0-6 5-10 11-10 6 0 10 4 10 10l0 11 11 0c6 0 10 4 10 10-3 6-7 11-12 11z m-57 357c17 0 30 13 30 30 0 16-13 30-30 30-17 0-30-14-30-30 0-17 13-30 30-30z m0 40c6 0 11-4 11-10 0-6-5-11-11-11-6 0-11 5-11 11 0 6 5 10 11 10z m62-153c-17 0-30-14-30-30 0-17 13-30 30-30 16 0 30 13 30 30 0 16-14 30-30 30z m0-41c-6 0-11 5-11 11 0 6 5 10 11 10 6 0 10-4 10-10 0-6-4-11-10-11z m-253 119c16 0 30 14 30 30 0 17-14 30-30 30-17 0-30-13-30-30 0-16 13-30 30-30z m0 39c6 0 10-4 10-10 0-6-4-11-10-11-6 0-11 5-11 11 0 6 5 10 11 10z m250-238c0 6-5 11-11 11-6 0-10-5-10-11 0-6 4-10 10-10 6 0 11 4 11 10z m-113 199c6 0 10 5 10 11 0 6-4 10-10 10-6 0-11-4-11-10 0-6 5-11 11-11z m134-263c-6 0-11-5-11-11 0-6 5-10 11-10 6 0 10 4 10 10 0 6-6 11-10 11z m-331 328c6 0 10 4 10 10 0 6-4 11-10 11-5-2-9-6-9-11 0-6 4-10 9-10z"/>
<glyph glyph-name="services" unicode="&#41;" d="M256 322c84 0 158-63 172-146 1-4 4-9 10-9 0 0 2 0 2 0 6 2 9 6 9 12-14 94-97 163-191 163-7 0-11-5-11-11-2-4 3-9 9-9z m226-217l-17 0 0 21 17 0c6 0 10 5 10 11l0 14c0 117-88 215-204 230l0 24 3 0c16 0 30 14 30 30 0 17-14 30-30 30l-70 0c-16 0-30-13-30-30 0-16 14-30 30-30l5 0 0-26c-116-13-205-111-205-228l0-14c0-6 5-11 11-11l16 0 0-21-18 0c-16 0-30-13-30-30 0-16 14-30 30-30l452 0c16 0 30 14 30 30 0 17-14 30-30 30z m-261 321c-6 0-10 5-10 11 0 6 4 10 10 10l70 0c6 0 10-6 10-10 0-6-4-11-10-11z m46-21l0-23c-3 0-8 0-11 0-3 0-8 0-11 0l0 23z m-225-257l0 3c0 117 95 212 214 212 119 0 214-95 214-212l0-3z m402-22l0-21-376 0 0 21z m38-61l-452 0c-6 0-10 4-10 10 0 6 4 11 10 11l450 0c6 0 11-5 11-11 0-6-5-10-9-10z"/>
<glyph glyph-name="train" unicode="&#42;" d="M138 20c-2 0-4 0-6 1-4 3-5 10-2 14 3 5 31 45 55 78 3 5 9 6 14 2 4-3 5-9 2-13-33-47-53-75-55-78-2-3-5-4-8-4z m236 0c-3 0-6 1-8 4-2 3-22 31-55 78-3 4-2 10 2 13 5 4 11 3 14-2 24-33 52-73 55-78 3-4 2-11-2-14-2-1-4-1-6-1z m-22 29l-194 0c-6 0-10 5-10 10 0 6 4 10 10 10l194 0c5 0 10-4 10-10 0-5-5-10-10-10z m2 49l-196 0c-28 0-50 23-50 50l0 236c0 27 22 49 50 49l196 0c28 0 50-22 50-49l0-236c0-27-22-50-50-50z m-196 316c-17 0-30-14-30-30l0-236c0-17 13-30 30-30l196 0c17 0 30 13 30 30l0 236c0 16-13 30-30 30z m29-276c-22 0-39 17-39 39 0 22 17 40 39 40 22 0 39-18 39-40 0-21-17-39-39-39z m0 59c-11 0-20-9-20-20 0-11 9-19 20-19 11 0 20 8 20 19 0 11-9 20-20 20z m138-59c-22 0-39 18-39 39 0 22 17 39 39 39 22 0 39-17 39-39 0-21-17-39-39-39z m0 59c-11 0-19-9-19-20 0-11 8-19 19-19 11 0 20 8 20 19 0 11-9 20-20 20z m-69 217c-22 0-39 17-39 39 0 22 17 39 39 39 22 0 39-17 39-39 0-22-17-39-39-39z m0 59c-11 0-20-9-20-20 0-11 9-20 20-20 11 0 20 9 20 20 0 11-9 20-20 20z m-10-237l-98 0 0 118 98 0z m-79 20l59 0 0 79-59 0z m197-20l-98 0 0 118 98 0z m-78 20l59 0 0 79-59 0z m19 118l-98 0c-6 0-10 5-10 10 0 5 4 10 10 10l98 0c6 0 10-5 10-10 0-5-4-10-10-10z"/>
<glyph glyph-name="star" unicode="&#43;" d="M232 436c7 24 41 24 48 0l27-84c4-10 14-17 25-17l88 0c25 0 35-32 15-46l-71-52c-9-7-13-18-10-29l28-84c8-23-20-43-40-28l-71 52c-9 6-21 6-30 0l-71-52c-20-15-48 5-40 28l28 84c3 11-1 22-10 29l-71 52c-20 14-10 46 15 46l88 0c11 0 21 7 25 17z"/>
<glyph glyph-name="email-filled" unicode="&#44;" d="M92 371c-6 0-11-1-15-3l170-136c7-3 12-3 19 0l169 136c-4 2-9 3-15 3z m-27-17c-1-3-1-6-1-10l0-175c0-5 0-9 2-13l120 101z m382 0l-121-97 120-101c2 4 2 8 2 13l0 175c0 4 0 7-1 10z m-246-109l-122-102c4-2 8-2 14-2l327 0c5 0 9 1 13 2l-122 102c-12-10-24-20-36-29-12-6-25-6-37 0-12 9-25 19-37 29z"/>
<glyph glyph-name="videocam" unicode="&#45;" d="M320 341l0-170-213 0 0 170z m21 43l-256 0c-11 0-21-10-21-21l0-214c0-11 10-21 21-21l256 0c12 0 22 10 22 21l0 75 85-85 0 234-85-85 0 75c0 11-10 21-22 21z"/>
<glyph glyph-name="arrow-download" unicode="&#46;" d="M256 5c-2 0-2 0-5 0-2 0-5 0-10 2 0 0-2 0-2 3-3 2-7 2-10 5l-180 163c-15 15-17 37-3 51 13 15 37 17 52 3l121-110 0 351c0 19 17 37 37 37 20 0 37-18 37-37l0-349 121 110c15 15 39 12 52-2 14-15 12-39-3-52l-183-163c-2-2-4-5-9-5 0 0-3 0-3 0-2 0-7-2-10-2 0-5-2-5-2-5z"/>
<glyph glyph-name="error-popup" unicode="&#47;" d="M256 512c-141 0-256-115-256-256 0-141 115-256 256-256 141 0 256 115 256 256 0 141-115 256-256 256z m0-483c-125 0-227 102-227 227 0 125 102 227 227 227 125 0 227-102 227-227 0-125-102-227-227-227z m22 227l61 61c7 6 7 16 0 22-6 7-16 7-22 0l-61-61-61 61c-6 7-16 7-22 0-7-6-7-16 0-22l61-61-61-61c-7-6-7-16 0-22 6-7 16-7 22 0l61 61 61-61c6-7 16-7 22 0 7 6 7 16 0 22z"/>
<glyph glyph-name="info" unicode="&#58;" d="M111 401c-80-80-80-210 0-290 80-80 210-80 290 0 80 80 80 210 0 290-80 80-210 80-290 0z m153-26c17 0 31-14 31-32 0-17-14-31-31-31-17 0-31 14-31 32 0 17 14 31 31 31z m45-212c-1-2-3-5-5-7-11-12-25-18-41-18-8 0-15 0-23 1-13 2-29 17-26 34 1 11 3 22 5 33 3 20 7 40 10 59 0 1 1 3 1 4 0 8-3 11-11 12-4 1-7 1-11 2-3 1-6 5-5 8 0 3 2 5 7 6 2 1 4 1 7 1l60 0c7 0 11-4 11-11 0-6 0-12-2-18-4-23-8-45-12-67-1-8-3-15-4-22 0-4 0-8 1-11 1-5 5-8 10-7 4 0 7 1 11 3 3 2 6 4 9 5 5 1 9-2 8-7z"/>
<glyph glyph-name="fasteritos" unicode="&#59;" d="M299 314c11 0 19 8 19 19 0 11-8 19-19 19-11 0-19-8-19-19 0-11 10-19 19-19z m-46-30c15-23 39-36 68-36 44 0 81 36 81 81 0 44-36 82-80 82-27 0-53-14-67-36-15 22-39 36-68 36-44 0-81-36-81-81 0-44 37-81 81-81 27-1 53 12 66 35z m-132 45c0 36 30 64 65 64 27 0 50-16 61-41 0 0 0 0 0-2 0 0 0 0 1-1 0 0 0 0 1-1 0 0 0 0 2 0 0 0 0 0 1 0 0 0 0 0 1 0 0 0 0 0 2 0 1 0 2 1 2 2 0 0 0 0 0 2 11 25 35 41 61 41 35 0 65-29 65-64 0-37-30-65-65-65-27 0-50 16-61 42 0 0 0 0 0 1 0 0 0 0 0 2 0 0 0 0-1 0 0 0 0 0-1 0 0 0 0 0-2 0 0 0 0 0-1 0 0 0 0 0-1 0 0 0 0 0 0-2-10-25-34-42-61-42-39-1-69 29-69 64z m88-15c11 0 19 8 19 19 0 11-8 19-19 19-11 0-19-8-19-19 0-11 8-19 19-19z m-14-78c3-39 37-50 56-50 32 0 51 15 56 46l2 9-115 6z m96-12c-5-17-17-23-39-23-1 0-31 1-39 25z m146-87c-2 4-13 23-75 44 45 22 66 64 66 121 0 64-29 109-84 129l29 28-11 6c-5 3-10 5-17 8-3 23-23 39-46 39-17 0-34-9-42-23-12 0-19 0-20 0l-11-1 18-41c-105-2-162-52-162-144 0-59 23-100 69-122-63-21-74-40-76-44-2-5-1-10 2-16 12-21 23-31 33-31 7 0 13 4 14 8l1 3 0 12 23 4c-23-54-19-93-16-102 1-3 4-11 39-14 10 0 36-1 57 6l6 2-1 4c-3 15-4 29 0 33 3 3 10 5 23 5 13 0 20-1 23-5 4-4 3-18 0-33l-1-6 6-3c14-4 30-5 42-5 5 0 11 0 15 0 35 2 38 10 39 13 3 11 7 49-16 103l23-5 0-12 1-1c3-4 7-8 14-8 10 0 21 9 33 31 3 7 4 12 2 17z m-176 336l6 0 2 4c7 12 18 19 31 19 18 0 33-14 34-30l0-5 6-2c2-1 5-1 6-2l-20-18c-20 6-42 8-66 8l-11 26c4 0 8 0 12 0z m-164-170c0 85 54 128 158 128 105 0 157-43 157-128 0-85-54-126-157-126-31 0-57 4-78 10 0 0 0 0-2 0-51 18-78 57-78 116z m325-172c-10-18-16-22-19-23l0 20-66 11 7-14c25-54 24-93 21-102-8-4-43-8-70-3 3 16 3 30-5 39-7 7-16 11-35 11-19 0-30-3-35-11-7-8-7-21-6-39-24-7-59-2-67 0-3 11-4 50 21 103l7 13-66-11 0-17c-3 0-8 4-19 23 0 8 37 25 84 40 13-4 28-8 44-9 6-4 14-8 22-11-4-4-8-10-11-16-7-15-8-31-1-34 6-3 17 7 25 23 0 0 0 1 2 3 0 0 0 0 0-2 5-16 16-27 23-25 6 2 8 17 2 33-2 8-6 14-9 18 8 3 16 5 20 9 19 3 35 6 51 11 0 0 0 0 2 0 33-11 74-30 78-40z"/>
<glyph glyph-name="seminar" unicode="&#60;" d="M10 512l204 0c-4-4-9-10-13-16l-182 0 0-372c0-2-1-5-3-6-1-2-3-3-6-3-1 0-4 1-6 3 0 3-1 4-1 6l0 381c0 1 1 4 3 6 1 0 3 1 4 1z m492-396c-2 0-5 2-6 3-2 2-3 3-3 6l0 372-182 0c-3 6-7 12-13 16l204 0c1 0 4-1 6-2 0-3 1-5 1-6l0-380c0-1-1-4-3-6-1-1-3-3-4-3z m-298 311c3-4 7-9 12-12-8-4-15-10-20-18-4-7-7-16-7-25l0-24-16 0 0 24c0 12 3 22 9 31 6 11 13 18 22 24z m92-12c5 3 9 8 12 12 9-6 18-13 22-24 5-10 9-20 9-31l0-24-16 0 0 24c0 9-3 18-7 25-5 8-11 14-20 18z m-31 2c-6 1-12 1-18 0-12 3-22 9-30 18-7 9-10 20-9 32 2 12 6 23 15 32 9 9 21 13 33 13 12 0 24-4 31-12 9-7 15-19 15-31 2-12-1-24-9-33-6-10-16-16-28-19z m-9 79c-6 0-12-2-18-6-4-3-9-9-12-15-3-6-3-12-1-18 1-6 4-12 9-16 4-5 10-8 16-9 6-2 12 0 18 1 6 3 10 6 15 12 3 6 6 12 6 18 0 9-3 16-9 22-8 8-15 11-24 11z m83-252c9 0 17-3 24-7 8-5 14-12 17-20 3-7 4-16 3-25-2-9-6-16-12-22-6-6-14-11-23-12-9-2-18-2-25 3-7 3-15 9-19 16-5 8-8 16-8 24 0 12 5 22 14 31 7 8 17 12 29 12z m0-71c6 0 11 1 15 4 5 3 8 8 11 12 1 4 3 10 1 16-1 6-3 11-7 15-5 5-9 6-15 8-6 1-11 0-17-2-4-1-8-6-11-10-3-5-5-11-5-15 0-8 3-15 8-19 5-6 13-9 20-9z m-210 26c0 9 3 18 8 24 4 8 12 14 19 17 8 3 17 4 26 3 9-2 16-6 22-12 6-6 10-14 12-23 1-9 1-17-3-25-3-7-9-15-17-19-7-5-14-8-23-8-12 0-23 5-32 14-7 7-12 19-12 29z m44-26c6 0 10 1 15 4 4 3 7 8 10 12 1 4 3 10 1 16-1 6-3 11-7 15-4 5-9 6-15 8-6 1-10 0-16-2-5-1-9-6-12-10-3-5-5-11-5-15 0-8 3-15 8-19 7-6 13-9 21-9z m245 7c9 0 17-3 24-7 7-5 13-12 16-20 3-7 5-16 3-25-1-9-6-16-12-22-5-6-13-11-22-12-9-2-18-2-25 3-8 3-15 9-19 16-5 8-8 16-8 24 0 12 5 22 13 31 8 8 18 12 30 12z m0-71c6 0 11 1 15 4 5 3 8 8 11 12 1 4 3 10 1 16-1 6-3 11-7 15-5 5-9 6-15 8-6 1-11 0-17-2-4-1-9-6-12-10-3-5-4-11-4-15 0-8 3-15 7-19 5-5 14-9 21-9z m-122-17c5 3 8 8 11 12 12-9 22-19 29-33 8-13 11-28 11-43l0-12c0-4-2-9-5-12-3-3-7-4-12-4l-148 0c-5 0-9 1-12 4-3 3-5 8-5 12l0 12c0 15 3 30 11 43 7 14 17 26 29 33 3-4 6-9 11-12-11-7-20-16-25-27-6-11-9-23-9-37l0-12 148 0 0 12c0 14-3 26-9 37-5 11-14 20-25 27z m-40 88c9 0 16-3 24-7 7-5 13-12 16-20 3-7 5-16 3-25-1-9-6-16-12-22-6-6-13-11-22-12-9-2-18-2-25 3-8 3-15 9-20 16-4 8-7 16-7 24 0 12 4 22 13 31 8 8 18 12 30 12z m0-71c6 0 10 1 15 4 4 3 7 8 10 12 2 4 3 10 2 16-2 6-3 11-8 15-4 5-9 6-15 8-5 1-10 0-16-2-4-1-9-6-12-10-3-5-4-11-4-15 0-8 3-15 7-19 5-5 14-9 21-9z m-162-17c-9 0-17 3-24 8-7 4-13 12-16 19-3 8-5 16-3 25 1 9 6 17 12 23 5 6 13 10 22 12 9 1 18 1 25-3 8-3 15-9 19-17 6-6 8-15 8-24 0-11-5-22-13-31-8-7-18-12-30-12z m0 72c-6 0-11-2-15-5-5-3-8-7-11-12-1-4-3-10-1-16 1-6 3-10 7-15 5-4 9-6 15-7 6-2 11 0 17 1 4 2 9 6 12 11 3 4 4 10 4 14 0 8-3 15-7 20-5 4-14 9-21 9z m40 168l115 0 0 12c-9 4-17 15-17 28 0 16 11 30 24 30 13 0 24-14 24-30 0-13-6-24-17-28l0-12 115 0c5 0 9-2 12-5 3-3 4-7 4-11l0-24c0-5-1-9-4-12-3-3-7-5-12-5l-18 0-3-19c-4 1-10 3-15 3l3 16-177 0 3-16c-6 0-10-2-15-3l-4 19-18 0c-5 0-9 2-12 5-3 3-4 7-4 12l0 24c0 4 1 8 4 11 3 3 7 5 12 5z m122 53c-4 0-7-5-7-13 0-7 3-13 7-13 4 0 7 6 7 13 0 8-3 13-7 13z m-122-93l246 0 0 24-246 0z m220-224c-3 6-4 11-7 17 6 7 13 15 21 19 3-4 6-9 10-12-9-6-18-13-24-24z m139-68l-136 0c3 4 5 10 5 16l131 0 0 12c0 14-3 26-9 37-6 12-15 21-26 27 5 3 8 8 11 12 12-9 22-19 30-33 7-13 10-28 10-43l0-12c0-4-1-9-4-12-3-3-8-4-12-4z m-450 104c3-4 6-9 11-12-11-7-20-16-26-27-6-11-9-23-9-37l0-12 131 0c0-6 2-10 5-16l-136 0c-4 0-9 1-12 4-3 3-4 8-4 12l0 12c0 15 3 30 10 43 8 14 18 26 30 33z m91-12c4 3 7 8 10 12 8-6 15-12 21-19-3-5-6-11-7-17-6 11-15 18-24 24z"/>
<glyph glyph-name="vehicle-group-bgt" unicode="&#61;" d="M499 192l-84 0 0 180c0 6-5 11-11 11l-391 0c-6 0-11-5-11-11l0-191c0-6 5-11 11-11l90 0c5-23 26-41 51-41 25 0 46 18 51 41l294 0c6 0 11 5 11 11 0 6-5 11-11 11z m-106 169l0-38-369 0 0 38z m-240-210c-16 0-30 13-30 30 0 17 13 30 30 30 17 0 30-13 30-30 0-17-13-30-30-30z m240 41l-188 0c-5 23-27 41-51 41-25 0-46-18-51-41l-79 0 0 109 369 0z"/>
<glyph glyph-name="vehicle-group-btr" unicode="&#62;" d="M499 217l-57 0c-3 0-6-1-8-3l-18-18-69 0 86 86c4 4 4 9 2 13-1 3-5 7-10 7l-80 0-89 81c-2 2-4 3-7 3l-141 0c-4 0-8-2-10-7l-32-77-35 0c-6 0-11-5-11-11 0-31 6-60 19-84 1-2 2-4 3-6l2-4-31 0c-6 0-11-5-11-11 0-6 5-11 11-11l140 0 0-3c0-25 21-46 47-46 25 0 46 21 46 46l0 3 175 0c3 0 5 1 8 3l17 18 53 0c6 0 11 5 11 11 0 5-5 10-11 10z m-383 146l129 0 67-62-221 0z m84-216c-13 0-24 11-24 24 0 13 11 24 24 24 14 0 24-11 24-24 0-14-11-24-24-24z m39 49l-1 2c-8 12-23 20-38 20-15 0-29-8-38-20l-1-2-89 0-2 2c-4 6-8 12-11 18-9 18-14 38-16 60l0 3 354 0-83-83z"/>
<glyph glyph-name="vehicle-group-car" unicode="&#63;" d="M482 296c-23 14-58 23-102 25l-2 0-1 1c-31 29-74 61-121 61l-84 0c-36 0-59-17-87-38l-3-3c-10-6-18-12-28-20l-2-1-32 0c-1 0-3 0-5-2-1-1-2-2-3-3l-2-5c-4-13-8-31-9-51-2-21-1-40 1-51 4-13 10-22 18-29 8-6 19-10 32-10l4 0 1-3c8-23 30-38 54-38 25 0 47 15 55 38l1 3 167 0 2-3c8-23 30-38 54-38 25 0 47 15 55 38l1 3 56 0c3 0 5 1 7 2 2 2 2 4 2 7l0 72c1 17-10 33-29 45z m-370-150c-22 0-39 17-39 38 0 20 18 37 39 37 21 0 39-17 39-37 0-21-18-38-39-38z m279 0c-21 0-39 17-39 38 0 20 18 37 39 37 21 0 39-17 39-37 0-21-18-38-39-38z m102 42l-44 0-1 3c-4 28-28 48-57 48-28 0-52-20-57-48l0-3-165 0-1 3c-5 28-28 48-57 48-29 0-53-20-57-47l-1-4-4 0c-8 0-14 2-18 5-5 4-9 10-11 19-2 9-2 25-1 41 1 18 4 35 7 47l1 3 28 0c2 0 4 1 6 2 5 3 9 6 13 9 7 5 13 9 19 14 29 23 49 37 79 37l84 0c33 0 67-18 112-59 2-2 5-3 7-3 41-1 73-8 95-20 23-13 24-28 24-33l0-62z m-179 101l-152 0-26 25-13-12 29-28c2-2 4-3 7-3l157 0c0 0 1 0 2 0 0 0 0 0 1 1l20 7-7 17z"/>
<glyph glyph-name="vehicle-group-carbgt" unicode="&#64;" d="M484 249c-24 15-59 24-103 26l-2 0-1 1c-26 22-58 48-94 57l0 20 66 0c4 0 8 3 8 8l0 23c0 2-2 5-3 6l-54 38c-1 0-3 1-4 1l-181 0c-4 0-6-2-8-5l-23-61c-1-2-1-5 1-7 1-1 4-3 6-3l60 0 0-17c-25-5-45-20-67-37l-3-2c-10-7-18-13-29-20l-1-1-32 0c-1 0-3-1-5-2-1-1-2-2-3-3l-2-5c-4-13-8-32-9-52-2-20-1-40 1-51 4-12 10-22 18-28 8-7 19-11 32-11l4 0 1-3c8-23 30-38 54-38 25 0 47 15 55 38l1 3 168 0 1-3c8-23 30-38 55-38 24 0 46 15 55 38l1 3 55 0c3 0 5 1 7 3 2 1 3 3 3 6l0 71c1 17-9 33-28 45z m-380 119l18 45 173 0 48-33 0-12c0 0-239 0-239 0z m165-15l0-16c-4 0-8 0-12 0l-84 0c-2 0-4 0-5 0l0 16z m-156-253c-22 0-39 17-39 37 0 21 18 38 39 38 21 0 39-17 39-38 0-20-18-37-39-37z m279 0c-21 0-39 17-39 37 0 21 18 38 39 38 22 0 39-17 39-38 0-20-17-37-39-37z m103 41l-45 0 0 4c-5 27-29 48-57 48-29 0-53-20-57-48l-1-4-165 0-1 4c-4 27-28 48-57 48-28 0-53-20-57-48l0-4-4 0c-8 1-14 2-19 6-5 4-8 10-11 18-2 10-2 25-1 42 2 18 5 34 8 46l1 4 28 0c1 0 3 1 5 2 5 3 9 6 14 9 6 4 12 9 19 13 28 24 48 37 78 37l84 0c34 0 67-17 113-59 2-1 5-2 6-2 42-1 74-8 96-20 22-14 24-29 24-33l0-63z m-180 111l-152 0-26 25-13-12 29-28c2-2 4-3 7-3l157 0c1 0 1 0 2 0 0 0 0 0 1 0l20 8-7 17z"/>
<glyph glyph-name="vehicle-group-mbscmp" unicode="&#91;" d="M509 254l-65 65 55 0 0 80c0 6-4 10-10 10l-479 0c-5 0-10-4-10-10l0-248c0-6 5-10 10-10l38 0c4-22 24-38 46-38 24 0 43 16 47 38l237 0c5-22 24-38 47-38 23 0 42 16 47 38l30 0c5 0 10 4 10 10l0 96c0 3-1 6-3 7z m-415-131c-15 0-27 12-27 28 0 15 12 27 27 27 16 0 28-12 28-27 0-16-12-28-28-28z m170 38l-58 0 0 135 58 0z m74 177l0-177-54 0 0 145c0 5-4 10-10 10l-77 0c-6 0-10-5-10-10l0-145-46 0c-4 21-24 37-47 37-23 0-42-16-46-37l-28 0 0 228 463 0 0-51z m87-215c-15 0-28 12-28 28 0 15 12 27 28 27 15 0 28-12 28-27 0-16-13-28-28-28z m66 38l-19 0c-5 21-24 37-47 37-23 0-42-16-47-37l-20 0 0 158 57 0 77-76 0-82z"/>
<glyph glyph-name="vehicle-group-moto" unicode="&#93;" d="M428 286c-12 0-22-2-32-6l-13 23 17 3c3 0 6 2 7 4 2 3 2 6 1 9l-13 41c-1 5-6 7-11 7l-35-6-27 31c-2 2-5 3-8 3l-42 0c-5 0-10-4-10-10 0-5 5-10 10-10l38 0 7-8c-39 2-96-36-117-50-16 14-38 22-60 22l-49 0c-35 0-63-28-63-63 0-3 2-6 4-8-20-16-32-40-32-66 0-47 38-85 84-85 47 0 85 38 85 85 0 3 0 6-1 9l62-40c1-1 3-2 5-2l115 0c13-31 43-52 78-52 46 0 84 38 84 84 0 47-38 85-84 85z m-43 38l-12-2-12 20 18 4z m-65 22c5-1 8-3 11-7 10-18 6-27 2-32-18-23-83-32-123-23l0 14c24 18 81 53 110 48z m-271-60c5 19 22 33 42 33l48 0c19 0 36-8 50-20l0-13c0 0-140 0-140 0z m35-148c-35 0-63 28-63 64 0 35 28 63 63 63 35 0 64-28 64-63 0-36-29-64-64-64z m154 52l-79 52c-5 9-12 17-20 24l59 0c13-4 30-6 48-6 40 0 85 10 103 34 3 5 6 9 7 15l2-4 20-35c-21-16-35-40-35-68 0-4 1-8 1-12z m190-52c-35 0-64 28-64 64 0 20 10 38 24 50l9-16c-10-9-16-21-16-34 0-26 21-46 46-46 26 0 46 20 46 46 0 25-20 46-46 46-4 0-8-1-12-3l-9 16c7 3 14 4 22 4 35 0 64-28 64-63 0-36-29-64-64-64z m-20 79l11-20c2-4 6-6 9-6 2 0 3 1 5 1 5 3 7 10 4 15l-11 20c1 0 2 1 2 1 14 0 26-12 26-26 0-14-12-25-26-25-14 0-25 11-25 25-1 5 1 11 5 15z m-324 31c-25 0-46-20-46-46 0-25 21-46 46-46 26 0 46 21 46 46 0 26-21 46-46 46z m0-72c-14 0-25 11-25 26 0 14 11 25 25 25 14 0 26-11 26-25 0-15-12-26-26-26z m209 68l-21 0c-5 0-10-5-10-10 0-6 5-10 10-10l21 0c5 0 10 4 10 10 0 5-5 10-10 10z"/>
<glyph glyph-name="vehicle-group-moto34" unicode="&#94;" d="M91 221c-22 0-40-18-40-41 0-22 18-40 40-40 22 0 40 18 40 40 0 23-18 41-40 41z m0-60c-11 0-20 9-20 20 0 11 9 20 20 20 11 0 20-9 20-20 0-11-9-20-20-20z m330 60c-22 0-40-18-40-41 0-22 18-40 40-40 22 0 40 18 40 40-1 23-18 41-40 41z m0-60c-11 0-20 9-20 20 0 11 9 20 20 20 11 0 20-9 20-20 0-11-9-20-20-20z m0 109c-1 0-2 0-3 0-15 99-96 126-99 127-4 1-8 0-11-4l-9-12-11 33c-1 4-5 7-9 7l-63 0c-6 0-10-4-10-10 0-5 4-9 10-9l55 0 10-32c-34 1-53-21-60-38l-79 14-14 32c-2 4-5 6-9 6l-72 0c-5 0-10-4-10-10l0-46c0-3 2-6 5-8l90-53-3-6c-12 6-24 8-38 8-49 0-89-40-89-89 0-49 40-89 89-89 47 0 85 35 89 81l19 0c3 0 6 2 9 4l18 27 47 0 17-27c2-2 5-4 9-4l33 0c4-46 42-81 89-81 49 0 89 40 89 89 0 50-40 90-89 90z m-52 65c7-9 14-20 19-33l-39 0c-9 0-16 7-16 17 0 9 7 17 16 17l20 0z m-278-223c-38 0-69 31-69 69 0 38 31 69 69 69 37 0 68-30 69-67 0 0 0 0 0 0l0-1c0 0 0-1 0-2 0-37-31-68-69-68z m196 108c-2 2-5 4-9 4l-57 0c-3 0-7-2-9-4l-18-27-14 0c-3 23-16 44-34 58l10 14c1 2 2 5 1 7 0 3-2 5-5 7l-95 55 0 30 56 0 13-31c1-3 4-5 7-5l92-19c5-1 10 2 12 8 0 1 10 40 56 31 0 0 1 0 1 0 0 0 0 0 1 0l0 0c1 0 1 0 2 0 0 0 1 0 1 0 0 0 0 0 0 0 1 1 2 1 3 2 1 0 1 1 1 1 0 0 0 0 1 1l16 22c6-3 18-9 30-19-20 0-37-17-37-37 0-20 17-37 37-37l46 0c1-5 2-10 3-15-35-9-61-39-66-74l-28 0z m134-108c-38 0-69 31-69 69 0 38 30 69 69 69 38 0 69-31 69-69-1-38-31-69-69-69z m-219 174c-6 0-10-5-10-10l0-28c0-5 4-10 10-10 5 0 10 5 10 10l0 28c0 5-5 10-10 10z m31 0c-5 0-10-5-10-10l0-28c0-5 5-10 10-10 5 0 10 5 10 10l0 28c0 5-4 10-10 10z m31 0c-5 0-10-5-10-10l0-28c0-5 5-10 10-10 6 0 10 5 10 10l0 28c1 5-4 10-10 10z"/>
<glyph glyph-name="vehicle-group-trlcrv" unicode="&#95;" d="M510 162l-54 173c-6 22-15 38-26 50-14 16-31 24-51 24l-301 0c-21 0-40-8-55-23-15-15-23-34-23-55l0-105c0-21 8-40 23-55 15-15 34-23 55-23l37 0c2-11 7-21 16-29 10-10 24-16 39-16 15 0 28 6 39 16 8 8 13 18 15 29l277 0c6 0 11 5 11 10-1 2-2 3-2 4z m-189 141c0 8 4 16 10 22 6 6 16 10 25 10 10 0 19-4 25-10 7-6 10-14 10-22l0-135-71 0z m91-134l0 134c0 14-5 27-16 37-11 10-25 15-39 15-15 0-29-5-40-15-11-10-16-24-16-37l0-135-77 0c-2 11-7 21-16 29-10 11-24 16-39 16-15 0-28-5-39-16-8-8-13-18-15-29l-37 0c-16 0-30 7-41 17-11 11-17 25-17 41l0 106c0 15 6 29 17 40 11 11 25 17 41 17l301 0c13 0 26-6 35-17 9-10 16-24 22-43l50-160z m-243-45c-9 0-18 4-24 10-6 6-10 15-10 24 0 9 4 18 10 25 6 6 15 10 24 10 9 0 18-4 25-10 6-7 10-16 10-25 0-9-4-18-10-24-7-6-16-10-25-10z m43 217l0 3 0 0-1 2 0 0c-2 3-5 5-9 5l-119 0c-6 0-13-3-18-7-5-5-8-12-8-18l0-54c0-6 3-13 8-18 5-4 12-7 18-7l145 0c6 0 11 4 11 10 0 2 0 3-1 4z m2-73l-131 0c-2 0-3 0-4 1-1 1-1 3-1 4l0 52c0 1 0 3 1 4 1 1 2 1 4 1l111 0z m167-17c0-6-5-11-10-11-6 0-10 5-10 11 0 5 4 10 10 10 5 0 10-5 10-10z"/>
<glyph glyph-name="vehicle-group-unknown" unicode="&#96;" d="M508 282l-2 7-19 5c-2 17-6 32-11 47l15 14-4 7c-6 14-14 29-25 44l-4 5-18-5c-11 13-22 24-34 34l5 19-6 4c-16 12-30 20-44 26l-7 3-14-15c-17 6-32 10-47 13l-5 19-7 1c-18 1-32 1-50 0l-8-1-5-19c-15-3-31-7-47-13l-14 16-7-4c-14-7-29-14-44-25l-5-4 5-18c-13-11-24-22-34-34l-19 5-4-6c-12-16-20-30-26-44l-3-7 16-14c-5-16-10-31-12-48l-19-5-1-7c-1-10-1-18-1-25 0-8 0-17 1-26l2-7 19-5c2-18 6-33 11-47l-15-15 4-7c6-14 14-28 25-43l4-6 18 5c11-12 22-23 34-34l-5-18 6-4c16-12 30-20 44-26l7-3 12 14c17-6 33-10 48-13l5-19 7-1c9-1 17-1 25-1 7 0 15 0 24 1l8 1 5 19c16 3 31 7 46 13l16-14 6 3c14 7 29 14 44 25l5 4-5 19c13 10 24 21 34 34l19-5 4 5c12 17 20 30 26 44l3 7-14 13c4 16 9 31 11 48l21 5 0 8c0 5 0 9 0 14 0 4 1 8 1 12 0 7 0 15-1 25z m-21-37c0-2 0-5-1-7l-17-4-2-11 0-1c-3-16-7-31-12-46l-7-10 16-14c-4-9-9-17-16-27l-19 5-6-10c-11-12-21-23-34-33l-9-6 5-19c-9-7-19-12-28-17l-14 13-10-3c-15-6-31-10-47-13l-11-2-5-17c-10-1-20-1-31 0l-4 17-11 2-1 0c-15 2-30 6-47 13l-12 4-11-13c-8 4-17 9-27 16l5 19-10 6c-12 11-23 21-33 34l-6 9-19-5c-6 10-11 18-16 27l13 13-2 10-1 2c-5 14-9 29-12 46l-3 12-17 4c-1 6-1 11-1 16 0 5 0 10 1 17l17 4 3 11 0 1c2 16 7 32 12 48l2 11-14 12c4 8 10 17 17 27l19-5 6 10c11 12 21 23 33 33l10 6-5 19c9 6 18 11 27 16l12-13 11 3 1 0c16 6 32 10 48 14l11 2 4 17c11 1 21 1 31 0l5-17 11-2 1 0c14-2 29-7 46-14l12-3 13 14c8-4 17-9 27-16l-5-19 9-6c13-11 24-21 34-34l6-9 19 5c6-10 11-18 16-27l-14-13 3-10 0-2c6-14 10-29 12-46l4-12 17-5c1-5 1-11 1-16 0-3 0-8 0-11z m-232 148c-77 0-140-63-140-140 0-76 63-139 140-139 76 0 139 63 139 139 0 77-62 140-139 140z m0-258c-66 0-118 53-118 118 0 66 52 119 118 119 65 0 118-53 118-119 0-65-53-118-118-118z"/>
<glyph glyph-name="notification" unicode="&#124;" d="M256 35c122 0 221 99 221 221 0 122-99 221-221 221-122 0-221-99-221-221 0-122 99-221 221-221z m-27 348l54 0-5-175-44 0z m56-224c0-16-13-29-29-29-16 0-29 13-29 29 0 16 13 29 29 29 16 0 29-13 29-29z"/>
</font>
</defs>
</svg>
